<?xml version="1.0" encoding="UTF-8"?>
<svg class="icon" width="200" height="200" p-id="2337" t="1622014449872" version="1.1" viewBox="0 0 1024 1024" xmlns="http://www.w3.org/2000/svg" xmlns:cc="http://creativecommons.org/ns#" xmlns:dc="http://purl.org/dc/elements/1.1/" xmlns:rdf="http://www.w3.org/1999/02/22-rdf-syntax-ns#"><metadata><rdf:RDF><cc:Work rdf:about=""><dc:format>image/svg+xml</dc:format><dc:type rdf:resource="http://purl.org/dc/dcmitype/StillImage"/><dc:title/></cc:Work></rdf:RDF></metadata><defs><style type="text/css"/></defs><g transform="matrix(1.081 0 0 1.081 -38.691 -44.259)"><path d="m982.12 601.6a184.39 184.39 0 1 0-184.39 183.96 184.18 184.18 0 0 0 184.39-183.96z" fill="#f4ca1c" p-id="2338"/><path d="m804.77 377.86a303.4 303.4 0 0 0-600.87 2.1094 217.44 217.44 0 0 0-168.06 216.37c2.1862 117.97 102.04 213.94 222.59 213.94a34.406 34.406 0 1 0 0-68.808c-83.272 0-152.24-65.679-153.74-146.43a148.83 148.83 0 0 1 121.49-149.5 55.03 55.03 0 0 0 45.056-48.696 234.5 234.5 0 0 1 466.34-1.3773 55.404 55.404 0 0 0 47.775 48.906 149.81 149.81 0 0 1 128.81 147.5 145.84 145.84 0 0 1-43.761 103.67 156.16 156.16 0 0 1-109.57 45.932 34.406 34.406 0 1 0 0 68.808 225.54 225.54 0 0 0 158.34-66.135 214.13 214.13 0 0 0 63.867-152.41 219.01 219.01 0 0 0-178.27-213.88zm-111.01 402.19-146.64 118.92a56.023 56.023 0 0 1-70.257 0l-146.63-118.92a34.497 34.497 0 1 1 43.653-53.427l103.54 83.968v-310.22a34.575 34.575 0 0 1 69.146 0v310.23l103.55-83.968a34.493 34.493 0 1 1 43.628 53.422z" fill="#595bb3" p-id="2339"/></g></svg>
