<?xml version="1.0" encoding="UTF-8"?>
<svg width="1e3" height="600" version="1.1" viewBox="0 0 1e3 600" xml:space="preserve" xmlns="http://www.w3.org/2000/svg" xmlns:xlink="http://www.w3.org/1999/xlink"><defs><linearGradient id="a" x2="1e3" y1="300" y2="300" gradientUnits="userSpaceOnUse"><stop stop-color="#7f7fd5" offset="0"/><stop stop-color="#86a8e7" offset=".5"/><stop stop-color="#91eae4" offset="1"/></linearGradient><filter id="b" x="-.034704" y="-.044199" width="1.0694" height="1.0884" color-interpolation-filters="sRGB"><feGaussianBlur stdDeviation="5.2459206"/></filter></defs><rect width="1e3" height="600" fill="url(#a)" stroke-width=".265"/><path d="m361.83 157.57c-23.69 0-43.227 19.538-43.227 43.229v198.39c0 23.69 19.536 43.229 43.227 43.229h276.34c23.69 0 43.227-19.538 43.227-43.229v-198.39c0-23.69-19.536-43.229-43.227-43.229zm0 29.762h276.34c7.7175 0 13.465 5.7473 13.465 13.465v198.4c0 7.7175-5.7474 13.465-13.465 13.465h-276.34c-7.7175 0-13.465-5.7473-13.465-13.465v-198.4c0-7.7175 5.7473-13.465 13.465-13.465zm211.66 27.279c-29.724 0-54.029 24.305-54.029 54.029 0 29.724 24.305 54.029 54.029 54.029 29.724 0 54.029-24.305 54.029-54.029 0-29.724-24.305-54.029-54.029-54.029zm-187.23 5.4297-13.777 13.777 34.822 34.822-34.824 34.824 13.779 13.779 34.824-34.824 34.822 34.822 13.777-13.779-34.822-34.82 34.822-34.822-13.779-13.779-34.822 34.822zm187.23 14.057c19.193 0 34.543 15.35 34.543 34.543 0 19.193-15.35 34.545-34.543 34.545-19.193 0-34.543-15.352-34.543-34.545 0-19.193 15.35-34.543 34.543-34.543zm-73.49 107.7v2e-3c-35.797 0-69.331 17.604-89.664 47.064l16.078 11.094c16.697-24.194 44.19-38.625 73.586-38.625 29.397 0 56.888 14.431 73.586 38.625l16.078-11.096c-20.332-29.461-53.87-47.064-89.664-47.064z" fill="#fff" fill-opacity=".45" fill-rule="evenodd" filter="url(#b)" style="font-feature-settings:normal;font-variant-alternates:normal;font-variant-caps:normal;font-variant-east-asian:normal;font-variant-ligatures:normal;font-variant-numeric:normal;font-variant-position:normal;font-variation-settings:normal;inline-size:0;isolation:auto;mix-blend-mode:normal;paint-order:normal;shape-margin:0;shape-padding:0;text-decoration-color:#000000;text-decoration-line:none;text-decoration-style:solid;text-indent:0;text-orientation:mixed;text-transform:none;white-space:normal"/><path d="m361.83 157.57c-23.69 0-43.227 19.538-43.227 43.229v198.39c0 23.69 19.536 43.229 43.227 43.229h276.34c23.69 0 43.227-19.538 43.227-43.229v-198.39c0-23.69-19.536-43.229-43.227-43.229zm0 29.762h276.34c7.7175 0 13.465 5.7473 13.465 13.465v198.4c0 7.7175-5.7474 13.465-13.465 13.465h-276.34c-7.7175 0-13.465-5.7473-13.465-13.465v-198.4c0-7.7175 5.7473-13.465 13.465-13.465zm211.66 27.279c-29.724 0-54.029 24.305-54.029 54.029 0 29.724 24.305 54.029 54.029 54.029 29.724 0 54.029-24.305 54.029-54.029 0-29.724-24.305-54.029-54.029-54.029zm-187.23 5.4297-13.777 13.777 34.822 34.822-34.824 34.824 13.779 13.779 34.824-34.824 34.822 34.822 13.777-13.779-34.822-34.82 34.822-34.822-13.779-13.779-34.822 34.822zm187.23 14.057c19.193 0 34.543 15.35 34.543 34.543 0 19.193-15.35 34.545-34.543 34.545-19.193 0-34.543-15.352-34.543-34.545 0-19.193 15.35-34.543 34.543-34.543zm-73.49 107.7v2e-3c-35.797 0-69.331 17.604-89.664 47.064l16.078 11.094c16.697-24.194 44.19-38.625 73.586-38.625 29.397 0 56.888 14.431 73.586 38.625l16.078-11.096c-20.332-29.461-53.87-47.064-89.664-47.064z" fill="#fffffc" fill-opacity=".29746" fill-rule="evenodd" style="font-feature-settings:normal;font-variant-alternates:normal;font-variant-caps:normal;font-variant-east-asian:normal;font-variant-ligatures:normal;font-variant-numeric:normal;font-variant-position:normal;font-variation-settings:normal;inline-size:0;isolation:auto;mix-blend-mode:normal;paint-order:normal;shape-margin:0;shape-padding:0;text-decoration-color:#000000;text-decoration-line:none;text-decoration-style:solid;text-indent:0;text-orientation:mixed;text-transform:none;white-space:normal"/></svg>
