<?xml version="1.0" encoding="UTF-8"?>
<svg xmlns="http://www.w3.org/2000/svg" xmlns:xlink="http://www.w3.org/1999/xlink" width="374pt" height="171pt" viewBox="0 0 374 171" version="1.1">
<g id="surface1">
<path style=" stroke:none;fill-rule:nonzero;fill:rgb(0%,63.137255%,83.921569%);fill-opacity:1;" d="M 347.253906 152.558594 C 345.582031 152.558594 344.15625 152.691406 342.757812 152.53125 C 339.921875 152.207031 337.085938 152.269531 334.242188 152.183594 C 332.410156 152.136719 332.464844 152.136719 332.308594 150.363281 C 331.855469 144.949219 331.359375 139.542969 330.871094 134.136719 C 330.449219 129.390625 330.050781 124.632812 329.585938 119.890625 C 329.164062 115.542969 328.65625 111.203125 328.195312 106.859375 C 327.757812 102.78125 327.351562 98.691406 326.898438 94.617188 C 326.324219 89.484375 325.726562 84.359375 325.113281 79.230469 C 324.5625 74.703125 324.019531 70.160156 323.410156 65.636719 C 322.457031 58.621094 321.480469 51.609375 320.484375 44.597656 C 319.414062 37.128906 318.132812 29.699219 316.792969 22.277344 C 316.550781 20.949219 316.585938 20.898438 317.855469 20.6875 C 323.144531 19.785156 328.457031 19.015625 333.835938 19.132812 C 334.417969 19.148438 335.007812 19.160156 335.582031 19.234375 C 336.527344 19.351562 337.019531 19.808594 337.074219 20.910156 C 337.261719 24.746094 337.527344 28.582031 337.8125 32.414062 C 338.265625 38.691406 338.757812 44.964844 339.226562 51.238281 C 339.523438 55.277344 339.78125 59.304688 340.085938 63.332031 C 340.570312 69.808594 341.085938 76.277344 341.578125 82.75 C 341.875 86.710938 342.136719 90.679688 342.441406 94.636719 C 342.90625 100.449219 343.414062 106.257812 343.882812 112.066406 C 344.183594 115.761719 344.449219 119.464844 344.765625 123.160156 C 345.230469 128.636719 345.730469 134.113281 346.207031 139.585938 C 346.566406 143.859375 346.890625 148.144531 347.253906 152.558594 Z M 142.53125 19.191406 C 143.308594 19.191406 144.476562 19.105469 145.628906 19.210938 C 147.097656 19.34375 147.382812 19.726562 147.472656 21.199219 C 147.894531 27.941406 148.289062 34.6875 148.738281 41.433594 C 149.230469 48.710938 149.769531 55.976562 150.308594 63.242188 C 150.804688 69.914062 151.304688 76.585938 151.835938 83.257812 C 152.417969 90.589844 153.066406 97.90625 153.652344 105.238281 C 154.097656 110.851562 154.476562 116.464844 154.933594 122.085938 C 155.371094 127.300781 155.886719 132.503906 156.355469 137.710938 C 156.757812 142.195312 157.164062 146.683594 157.550781 151.167969 C 157.675781 152.589844 157.574219 152.679688 156.039062 152.644531 C 152.03125 152.546875 148.039062 152.078125 144.027344 152.191406 C 143.109375 152.214844 142.84375 151.792969 142.6875 150.921875 C 142.355469 149.027344 142.410156 147.097656 142.207031 145.179688 C 141.65625 140.109375 141.339844 135.019531 140.875 129.941406 C 140.460938 125.324219 139.957031 120.71875 139.484375 116.109375 C 139.0625 111.894531 138.644531 107.679688 138.195312 103.457031 C 137.746094 99.316406 137.269531 95.171875 136.800781 91.027344 C 136.367188 87.210938 135.945312 83.398438 135.488281 79.585938 C 134.808594 73.996094 134.136719 68.40625 133.398438 62.832031 C 132.71875 57.714844 131.953125 52.609375 131.230469 47.5 C 130.246094 40.554688 129.140625 33.625 127.917969 26.722656 C 127.640625 25.160156 127.34375 23.601562 127.03125 22.042969 C 126.871094 21.257812 127.015625 20.804688 127.914062 20.679688 C 130.273438 20.367188 132.628906 19.875 135 19.644531 C 137.371094 19.425781 139.746094 18.980469 142.53125 19.191406 Z M 310.511719 86.542969 C 315.03125 86.542969 315.136719 86.578125 315.863281 90.640625 C 316.753906 95.660156 317.378906 100.71875 317.972656 105.777344 C 318.597656 111.167969 319.226562 116.558594 319.804688 121.953125 C 320.269531 126.296875 320.660156 130.648438 321.097656 134.992188 C 321.558594 139.542969 322.042969 144.082031 322.519531 148.625 C 322.78125 151.195312 323.027344 153.765625 323.320312 156.328125 C 323.40625 157.074219 323.179688 157.46875 322.449219 157.554688 C 320.90625 157.730469 319.371094 157.933594 317.835938 158.097656 C 315.015625 158.402344 312.1875 158.703125 309.363281 158.964844 C 307.90625 159.097656 307.808594 159.015625 307.535156 157.605469 C 305.058594 144.8125 302.574219 132.027344 300.117188 119.226562 C 298.484375 110.71875 296.890625 102.203125 295.289062 93.691406 C 295.074219 92.523438 294.875 91.347656 294.691406 90.171875 C 294.582031 89.5 294.765625 89.066406 295.527344 88.882812 C 300.617188 87.695312 305.761719 86.773438 310.511719 86.542969 Z M 120.660156 86.542969 C 125.492188 86.542969 125.472656 86.5625 126.21875 90.945312 C 127.375 97.738281 128.191406 104.5625 128.921875 111.414062 C 129.636719 118.058594 130.417969 124.699219 131.117188 131.34375 C 131.59375 135.890625 131.96875 140.449219 132.410156 144.988281 C 132.726562 148.21875 133.101562 151.441406 133.441406 154.667969 C 133.484375 155.0625 133.503906 155.460938 133.53125 155.859375 C 133.601562 157.441406 133.53125 157.570312 132.011719 157.722656 C 128.992188 158.039062 125.96875 158.300781 122.953125 158.601562 C 121.855469 158.707031 120.765625 158.867188 119.683594 158.972656 C 118.238281 159.109375 118.191406 159.101562 117.910156 157.644531 C 116.894531 152.519531 115.910156 147.386719 114.917969 142.265625 C 112.535156 129.921875 110.125 117.59375 107.761719 105.253906 C 106.816406 100.316406 106.003906 95.359375 105.074219 90.417969 C 104.902344 89.515625 105.03125 89.09375 105.964844 88.875 C 111.007812 87.699219 116.082031 86.78125 120.660156 86.542969 Z M 184.460938 138.289062 L 184.460938 159 C 184.460938 159.199219 184.441406 159.402344 184.46875 159.597656 C 184.570312 160.605469 184.199219 161.046875 183.164062 161.003906 C 181.800781 160.945312 180.449219 160.984375 179.089844 161.015625 C 176.246094 161.070312 173.398438 160.957031 170.5625 161.28125 C 168.992188 161.464844 169.023438 161.367188 168.871094 159.710938 C 168.40625 154.496094 167.898438 149.289062 167.421875 144.074219 C 166.984375 139.261719 166.589844 134.4375 166.140625 129.625 C 165.6875 124.671875 165.179688 119.734375 164.71875 114.789062 C 164.40625 111.488281 164.128906 108.191406 163.851562 104.890625 C 163.488281 100.59375 163.148438 96.304688 162.769531 92.011719 C 162.609375 90.199219 162.742188 89.941406 164.539062 89.753906 C 169.167969 89.246094 173.832031 89.101562 178.484375 89.324219 C 179.644531 89.386719 180.796875 89.609375 181.917969 89.882812 C 183.335938 90.21875 183.488281 90.429688 183.5625 91.910156 C 183.71875 94.890625 183.875 97.871094 183.953125 100.855469 C 184.046875 104.175781 183.96875 107.496094 184.09375 110.816406 C 184.402344 119.964844 184.355469 129.128906 184.460938 138.289062 Z M 373.933594 139.230469 L 373.933594 158.839844 C 373.933594 159.171875 373.921875 159.503906 373.9375 159.839844 C 374.007812 160.699219 373.609375 161.003906 372.789062 161 C 370.78125 160.984375 368.78125 161 366.777344 161.027344 C 364.511719 161.046875 362.253906 161.035156 359.992188 161.28125 C 358.503906 161.453125 358.492188 161.339844 358.359375 159.859375 C 357.746094 153.070312 357.097656 146.28125 356.476562 139.480469 C 355.914062 133.214844 355.390625 126.941406 354.8125 120.671875 C 354.21875 114.203125 353.574219 107.75 352.992188 101.285156 C 352.703125 98.046875 352.460938 94.808594 352.222656 91.570312 C 352.125 90.160156 352.28125 89.910156 353.871094 89.78125 C 356.636719 89.5625 359.394531 89.1875 362.183594 89.238281 C 364.960938 89.289062 367.742188 89.136719 370.503906 89.664062 C 372.84375 90.113281 372.960938 90.246094 373.101562 92.746094 C 373.5 100.101562 373.378906 107.480469 373.640625 114.835938 C 373.90625 122.667969 373.71875 130.5 373.933594 139.230469 Z M 305.792969 50.957031 C 307.429688 51.050781 308.714844 50.972656 310 51.253906 C 310.816406 51.441406 311.226562 51.808594 311.308594 52.6875 C 311.691406 56.902344 312.109375 61.121094 312.53125 65.339844 C 312.867188 68.765625 313.222656 72.191406 313.570312 75.613281 L 313.605469 75.8125 C 313.882812 77.96875 313.816406 78.03125 311.71875 78.148438 C 309.847656 78.25 307.984375 78.414062 306.117188 78.527344 C 304.886719 78.601562 304.496094 78.808594 304.292969 77.019531 C 303.59375 70.707031 302.78125 64.40625 302.007812 58.097656 C 301.792969 56.324219 301.554688 54.554688 301.292969 52.789062 C 301.136719 51.789062 301.527344 51.238281 302.460938 51.15625 C 303.691406 51.046875 304.917969 51.015625 305.792969 50.957031 Z M 116.558594 50.980469 C 117.816406 51.050781 119.117188 50.957031 120.386719 51.25 C 121.113281 51.414062 121.480469 51.71875 121.550781 52.546875 C 121.707031 54.523438 122.011719 56.496094 122.199219 58.472656 C 122.789062 64.535156 123.351562 70.605469 123.90625 76.671875 C 124.023438 77.992188 124 78.019531 122.765625 78.109375 C 120.574219 78.269531 118.378906 78.429688 116.183594 78.519531 C 114.90625 78.578125 114.746094 78.425781 114.585938 77.121094 C 114.03125 72.65625 113.507812 68.183594 112.972656 63.710938 C 112.542969 60.027344 112.179688 56.339844 111.65625 52.664062 C 111.511719 51.648438 111.839844 51.371094 112.652344 51.207031 C 113.941406 50.945312 115.234375 51.03125 116.558594 50.980469 Z M 183.199219 67.679688 C 183.199219 71.523438 183.210938 75.359375 183.195312 79.203125 C 183.195312 80.929688 183.175781 80.941406 181.460938 80.917969 C 179.398438 80.929688 177.335938 80.824219 175.285156 80.597656 C 173.960938 80.433594 173.933594 80.476562 173.898438 79.070312 C 173.761719 74.375 173.625 69.679688 173.527344 64.984375 C 173.457031 61.804688 173.421875 58.636719 173.230469 55.457031 C 173.128906 53.820312 173.21875 53.800781 174.792969 53.78125 C 177.117188 53.753906 179.433594 53.859375 181.742188 54.214844 C 183.132812 54.425781 183.195312 54.425781 183.199219 55.964844 C 183.210938 59.871094 183.210938 63.777344 183.210938 67.6875 L 183.199219 67.6875 Z M 372.769531 67.78125 C 372.769531 71.628906 372.78125 75.46875 372.765625 79.3125 C 372.765625 80.925781 372.738281 80.9375 371.117188 80.925781 C 368.992188 80.90625 366.871094 80.804688 364.753906 80.625 C 363.699219 80.546875 363.390625 80.101562 363.460938 79.144531 C 363.46875 79.011719 363.460938 78.878906 363.460938 78.746094 C 363.300781 71.332031 363.140625 63.921875 362.988281 56.503906 C 362.984375 56.109375 362.960938 55.714844 362.980469 55.3125 C 363 53.820312 363.003906 53.78125 364.507812 53.792969 C 366.574219 53.800781 368.625 53.910156 370.6875 54.113281 C 373.203125 54.363281 372.757812 54.671875 372.769531 56.660156 C 372.78125 60.363281 372.773438 64.074219 372.769531 67.78125 Z M 111.371094 76.800781 C 111.417969 78.910156 111.417969 78.90625 109.398438 79.398438 C 108.027344 79.734375 106.65625 80.101562 105.273438 80.40625 C 104.089844 80.671875 103.882812 80.523438 103.679688 79.363281 C 102.269531 71.5 100.863281 63.632812 99.464844 55.761719 C 99.183594 54.132812 99.257812 54.03125 100.859375 53.75 C 102.832031 53.402344 104.796875 53.058594 106.765625 52.753906 C 108.023438 52.558594 108.183594 52.628906 108.433594 54.011719 C 108.929688 56.804688 109.398438 59.609375 109.769531 62.425781 C 110.339844 66.878906 110.808594 71.351562 111.324219 75.8125 C 111.367188 76.136719 111.355469 76.476562 111.371094 76.800781 Z M 289.042969 53.972656 C 291.625 53.550781 294.226562 53.125 296.828125 52.710938 C 297.761719 52.570312 298.042969 53.15625 298.167969 53.988281 C 298.609375 57.066406 299.167969 60.121094 299.53125 63.203125 C 300.0625 67.671875 300.796875 72.117188 300.933594 76.617188 C 300.945312 77.078125 300.941406 77.546875 300.949219 78.007812 C 300.976562 78.722656 300.617188 79.09375 299.957031 79.246094 C 298.195312 79.644531 296.429688 80.039062 294.675781 80.460938 C 293.832031 80.664062 293.546875 80.304688 293.410156 79.484375 C 292.878906 76.351562 292.269531 73.238281 291.730469 70.117188 C 290.816406 64.976562 289.929688 59.832031 289.042969 54.6875 C 289.023438 54.503906 289.042969 54.304688 289.042969 53.972656 Z M 170.394531 72.015625 C 170.316406 74.75 170.484375 77.132812 170.109375 79.515625 C 169.996094 80.269531 169.777344 80.753906 168.964844 80.824219 C 167.226562 80.96875 165.488281 81.105469 163.757812 81.28125 C 162.921875 81.375 162.683594 81.011719 162.546875 80.1875 C 162.15625 77.757812 162.226562 75.292969 161.992188 72.851562 C 161.546875 68.242188 161.359375 63.601562 161.0625 58.972656 C 160.988281 57.847656 160.875 56.730469 160.785156 55.601562 C 160.734375 54.972656 160.988281 54.621094 161.660156 54.59375 C 163.914062 54.503906 166.15625 54.089844 168.421875 54.171875 C 169.746094 54.21875 169.859375 54.304688 169.953125 55.640625 C 170.011719 56.566406 169.996094 57.5 170.019531 58.429688 Z M 359.878906 69.363281 C 359.878906 72.546875 359.917969 75.730469 359.875 78.917969 C 359.847656 80.574219 359.660156 80.714844 358.097656 80.859375 C 356.546875 81.003906 355.007812 81.121094 353.464844 81.289062 C 352.59375 81.378906 352.1875 81.121094 352.136719 80.125 C 351.910156 75.890625 351.605469 71.660156 351.3125 67.4375 C 351.082031 63.929688 350.820312 60.433594 350.578125 56.933594 C 350.550781 56.53125 350.570312 56.132812 350.542969 55.738281 C 350.507812 55.035156 350.71875 54.625 351.503906 54.597656 C 353.695312 54.523438 355.871094 54.101562 358.074219 54.183594 C 359.421875 54.230469 359.441406 54.25 359.542969 55.652344 C 359.871094 60.214844 359.902344 64.785156 359.878906 69.363281 Z M 104.902344 126.273438 C 107.667969 129.320312 107.808594 132.925781 106.894531 136.699219 C 105.976562 140.46875 103.882812 143.578125 101.34375 146.367188 C 97.089844 151.023438 91.945312 154.464844 86.476562 157.386719 C 77.058594 162.421875 67.074219 165.765625 56.660156 167.742188 C 49.167969 169.15625 41.625 170.246094 34.003906 170.664062 C 31.679688 170.792969 29.359375 170.898438 27.039062 170.882812 C 25.355469 170.882812 23.667969 170.929688 21.988281 170.871094 C 20.5625 170.816406 20.355469 170.574219 20.238281 169.082031 C 19.804688 163.734375 19.4375 158.382812 18.960938 153.035156 C 18.40625 146.835938 17.753906 140.644531 17.15625 134.449219 C 16.71875 129.964844 16.339844 125.472656 15.859375 121.003906 C 15.300781 115.734375 14.675781 110.476562 14.070312 105.210938 C 13.511719 100.347656 12.980469 95.476562 12.390625 90.609375 C 11.734375 85.21875 11.054688 79.839844 10.335938 74.460938 C 9.628906 69.28125 8.894531 64.101562 8.128906 58.929688 C 6.886719 50.417969 5.53125 41.921875 4.070312 33.445312 C 2.886719 26.53125 1.570312 19.640625 0.117188 12.78125 C -0.0742188 11.859375 0.203125 11.492188 1.007812 11.15625 C 8.738281 7.949219 16.441406 4.6875 24.164062 1.464844 C 25.601562 0.867188 27.074219 0.363281 28.601562 0.0820312 C 29.660156 -0.117188 29.933594 0.101562 29.898438 1.164062 C 29.820312 3.886719 29.933594 6.613281 29.664062 9.324219 C 29.601562 10.050781 29.566406 10.777344 29.558594 11.507812 C 29.4375 21.257812 29.316406 31.011719 29.574219 40.769531 C 29.800781 49.316406 30.246094 57.855469 30.746094 66.398438 C 31.132812 73.140625 31.695312 79.882812 32.273438 86.613281 C 32.839844 93.210938 33.527344 99.800781 34.171875 106.398438 C 34.296875 107.652344 34.410156 107.769531 35.835938 107.578125 C 38.644531 107.15625 41.480469 106.921875 44.320312 106.878906 C 53.152344 106.855469 61.835938 108.070312 70.425781 110.105469 C 77.941406 111.886719 85.253906 114.265625 92.261719 117.589844 C 95.730469 119.234375 99.054688 121.136719 102.082031 123.550781 C 103.113281 124.363281 104.03125 125.296875 104.902344 126.273438 Z M 293.046875 124.671875 C 296.464844 127.667969 297.707031 131.339844 296.734375 135.878906 C 295.929688 139.625 294.101562 142.773438 291.667969 145.585938 C 287.757812 150.113281 283.007812 153.550781 277.871094 156.425781 C 267.796875 162.066406 257.066406 165.730469 245.785156 167.847656 C 239.628906 169.015625 233.417969 169.882812 227.175781 170.445312 C 223.640625 170.75 220.089844 171.128906 216.121094 170.882812 L 211.484375 170.882812 C 210.582031 170.882812 210.066406 170.597656 209.992188 169.523438 C 209.652344 164.835938 209.257812 160.148438 208.835938 155.464844 C 208.386719 150.519531 207.890625 145.570312 207.417969 140.625 C 206.992188 136.078125 206.597656 131.519531 206.132812 126.976562 C 205.703125 122.691406 205.210938 118.417969 204.746094 114.136719 C 204.316406 110.121094 203.898438 106.101562 203.421875 102.089844 C 202.851562 97.230469 202.25 92.367188 201.644531 87.507812 C 201.078125 82.972656 200.519531 78.441406 199.914062 73.910156 C 199.273438 69.054688 198.597656 64.203125 197.882812 59.359375 C 196.933594 53.070312 195.914062 46.804688 194.910156 40.527344 C 193.507812 31.636719 191.886719 22.785156 190.046875 13.976562 C 189.972656 13.585938 189.9375 13.1875 189.820312 12.804688 C 189.542969 11.953125 189.808594 11.496094 190.648438 11.167969 C 198.855469 7.957031 206.804688 4.082031 215.089844 1.027344 C 216.171875 0.621094 217.269531 0.167969 218.4375 0.0507812 C 219.488281 -0.0585938 219.757812 0.113281 219.65625 1.234375 C 219.101562 7.320312 219.421875 13.4375 219.132812 19.527344 C 218.898438 24.496094 218.921875 29.480469 219.175781 34.453125 C 219.234375 35.714844 219.28125 36.980469 219.269531 38.234375 C 219.207031 44.207031 219.523438 50.175781 219.828125 56.136719 C 220.214844 64.015625 220.789062 71.878906 221.371094 79.75 C 221.792969 85.429688 222.34375 91.097656 222.875 96.769531 C 223.160156 99.875 223.464844 102.972656 223.847656 106.058594 C 224.058594 107.765625 224.140625 107.78125 225.8125 107.554688 C 228.761719 107.15625 231.714844 106.828125 234.695312 106.871094 C 245.15625 107.003906 255.40625 108.65625 265.460938 111.523438 C 272.273438 113.457031 278.902344 115.875 285.160156 119.253906 C 287.984375 120.757812 290.628906 122.574219 293.046875 124.671875 Z M 51.539062 154.101562 C 55.40625 152.253906 74.179688 137.578125 75.671875 135.1875 C 66.558594 131.257812 57.414062 127.609375 47.582031 124.625 Z M 264.785156 136.148438 C 265.265625 135.628906 265.210938 135.226562 264.558594 134.941406 C 263.261719 134.347656 261.976562 133.714844 260.660156 133.175781 C 253.648438 130.308594 246.601562 127.53125 239.375 125.265625 C 238.746094 125.074219 238.097656 124.632812 237.292969 125.007812 L 241.1875 153.972656 C 241.761719 154.101562 241.988281 153.835938 242.242188 153.652344 C 248.808594 148.835938 255.414062 144.074219 261.71875 138.894531 C 262.78125 138.027344 263.832031 137.15625 264.785156 136.148438 Z M 264.785156 136.148438 "/>
</g>
</svg>
