<?xml version="1.0" encoding="UTF-8"?>
<svg width="250" height="281.25" version="1.1" viewBox="0 0 250 281.25" xml:space="preserve" xmlns="http://www.w3.org/2000/svg" xmlns:cc="http://creativecommons.org/ns#" xmlns:dc="http://purl.org/dc/elements/1.1/" xmlns:rdf="http://www.w3.org/1999/02/22-rdf-syntax-ns#"><metadata><rdf:RDF><cc:Work rdf:about=""><dc:format>image/svg+xml</dc:format><dc:type rdf:resource="http://purl.org/dc/dcmitype/StillImage"/><dc:title/></cc:Work></rdf:RDF></metadata>
<style type="text/css">
	.st1{fill:#DF6C0C;}
	.st2{fill:#FFFFFF;}
</style>

<path d="m20.681 0h208.64c11.457 0 20.681 10.453 20.681 23.438v234.37c0 12.985-9.2235 23.438-20.681 23.438h-208.64c-11.457 0-20.681-10.453-20.681-23.438v-234.37c0-12.985 9.2235-23.438 20.681-23.438z" color="#000000" color-rendering="auto" dominant-baseline="auto" fill="#f08705" fill-opacity=".85" fill-rule="evenodd" image-rendering="auto" shape-rendering="auto" solid-color="#000000" stop-color="#000000" style="font-feature-settings:normal;font-variant-alternates:normal;font-variant-caps:normal;font-variant-east-asian:normal;font-variant-ligatures:normal;font-variant-numeric:normal;font-variant-position:normal;font-variation-settings:normal;inline-size:0;isolation:auto;mix-blend-mode:normal;shape-margin:0;shape-padding:0;text-decoration-color:#000000;text-decoration-line:none;text-decoration-style:solid;text-indent:0;text-orientation:mixed;text-transform:none;white-space:normal"/><g transform="translate(14.075 15.817)"><path class="st1" d="m225 215.4c0 5.3-4.3 9.6-9.5 9.6h-138.4l-44.8-45.5 27.9-45.5 82.7-102.7 82.1 84.5z"/><path class="st2" d="m184.6 125.8h-23.7l-25-42.7c5.7-1.2 9.8-6.2 9.7-12v-32.1c0-6.8-5.4-12.3-12.2-12.3h-41.8c-6.8 0-12.3 5.4-12.3 12.2v32.2c0 5.8 4 10.8 9.7 12l-25 42.7h-23.6c-6.8 0-12.3 5.4-12.3 12.2v32.2c0 6.8 5.4 12.3 12.2 12.3h41.8c6.8 0 12.3-5.4 12.3-12.2v-32.2c0-6.8-5.4-12.3-12.2-12.3h-4.1l24.8-42.4h19.3l24.9 42.4h-4.1c-6.8 0-12.3 5.4-12.3 12.2v32.2c0 6.8 5.4 12.3 12.2 12.3h41.8c6.8 0 12.3-5.4 12.3-12.2v-32.2c0-6.8-5.4-12.3-12.2-12.3h-0.2z"/></g>
</svg>
