<?xml version="1.0" encoding="UTF-8"?>
<svg width="533.33" height="533.33" version="1.1" viewBox="-204.8 -341.33 788.86 1365.3" xmlns="http://www.w3.org/2000/svg"><path d="m872.3 341.33c0-377.03-305.64-682.67-682.67-682.67-377.03 0-682.67 305.64-682.67 682.67 0 340.74 249.64 623.16 576 674.37v-477.04h-173.33v-197.33h173.33v-150.4c0-171.09 101.92-265.6 257.85-265.6 74.69 0 152.81 13.333 152.81 13.333v168h-86.083c-84.804 0-111.25 52.623-111.25 106.61v128.06h189.33l-30.267 197.33h-159.07v477.04c326.36-51.213 576-333.64 576-674.37" fill="#1877f2"/><path d="m455.36 538.67 30.267-197.33h-189.33v-128.06c0-53.986 26.447-106.61 111.25-106.61h86.083v-168s-78.124-13.333-152.81-13.333c-155.94 0-257.85 94.506-257.85 265.6v150.4h-173.33v197.33h173.33v477.04a687.8 687.8 0 0 0 106.67 8.2929c36.288 0 71.91-2.8399 106.67-8.2929v-477.04h159.07" fill="#fff"/></svg>
