<?xml version="1.0" encoding="UTF-8"?>
<svg width="710.94" height="533.33" version="1.1" viewBox="-13.2 -16.504 67.776 66.016" xmlns="http://www.w3.org/2000/svg"><path d="m-17.312 49.512h14v-34l-20-15v43c0 3.315 2.685 6 6 6z" fill="#4285f4"/><path d="m44.688 49.512h14c3.315 0 6-2.685 6-6v-43l-20 15z" fill="#34a853"/><path d="m44.688-10.488v26l20-15v-8c0-7.415-8.465-11.65-14.4-7.2z" fill="#fbbc04"/><path d="m-3.312 15.512v-26l24 18 24-18v26l-24 18z" fill="#ea4335"/><path d="m-23.312-7.4879v8l20 15v-26l-5.6-4.2c-5.935-4.45-14.4-0.215-14.4 7.2z" fill="#c5221f"/></svg>
