<?xml version="1.0" encoding="UTF-8" standalone="no"?>
<svg
   height="365.81912"
   width="269.79993"
   viewBox="-43.6242 -135.2265 85.004154 371.0133"
   version="1.1"
   id="svg1316"
   sodipodi:docname="java.svg"
   inkscape:version="1.2 (dc2aedaf03, 2022-05-15)"
   xmlns:inkscape="http://www.inkscape.org/namespaces/inkscape"
   xmlns:sodipodi="http://sodipodi.sourceforge.net/DTD/sodipodi-0.dtd"
   xmlns="http://www.w3.org/2000/svg"
   xmlns:svg="http://www.w3.org/2000/svg">
  <defs
     id="defs1320" />
  <sodipodi:namedview
     id="namedview1318"
     pagecolor="#ffffff"
     bordercolor="#666666"
     borderopacity="1.0"
     inkscape:showpageshadow="2"
     inkscape:pageopacity="0.0"
     inkscape:pagecheckerboard="0"
     inkscape:deskcolor="#d1d1d1"
     showgrid="false"
     inkscape:zoom="0.70710678"
     inkscape:cx="242.53762"
     inkscape:cy="236.17366"
     inkscape:window-width="1916"
     inkscape:window-height="1024"
     inkscape:window-x="0"
     inkscape:window-y="54"
     inkscape:window-maximized="1"
     inkscape:current-layer="svg1316" />
  <path
     d="m -58.686738,111.0785 c 0,0 -15.902,11.771 8.384,14.283 31.406,3.24 56.2080002,3.505 99.125,-4.759 0,0 5.936,6.018 15.27,9.309 -87.814,25.678 -185.623002,2.025 -122.779,-18.833"
     id="path2021"
     style="fill:#5382a1;fill-opacity:1" />
  <path
     d="m -49.811738,151.6985 c 0,0 -14.178,8.245 10.09,11.035 29.4,3.354 44.4260002,2.873 76.825,-3.259 0,0 8.518,5.341 20.414,9.967 -72.63,31.128 -164.376002,-1.803 -107.329,-17.743"
     id="path2019"
     style="fill:#5382a1;fill-opacity:1" />
  <path
     d="m 16.132262,42.1735 c 17.896,20.604 -4.702,39.145 -4.702,39.145 0,0 45.441,-23.458 24.572,-52.833 -19.491,-27.394 -34.4379998,-41.005 46.479,-87.934 0,0 -127.013,31.722 -66.349,101.622"
     fill="#f8981d"
     id="path1308" />
  <path
     d="m 77.969262,136.6055 c 69.607998,-36.171 37.423998,-70.931 14.96,-66.248 -5.506,1.146 -7.961,2.139 -7.961,2.139 0,0 2.044,-3.202 5.948,-4.588 44.440998,-15.624 78.618998,46.081 -14.346,70.52 0,10e-4 1.077,-0.962 1.399,-1.823"
     id="path2037"
     style="fill:#5382a1;fill-opacity:1" />
  <path
     d="m -42.993738,68.9915 c 0,0 -67.431002,16.016 -23.879,21.832 18.389,2.462 55.047,1.905 89.193,-0.956 27.906,-2.354 55.927,-7.359 55.927,-7.359 0,0 -9.84,4.214 -16.959,9.075 -68.4749998,18.009 -200.756002,9.631 -162.674002,-8.79 32.206002,-15.568 58.392002,-13.802 58.392002,-13.802"
     id="path2035"
     style="fill:#5382a1;fill-opacity:1" />
  <path
     d="m 112.19126,181.7435 c 0,0 10.492,8.645 -11.555,15.333 -41.922998,12.7 -174.487998,16.535 -211.314,0.506 -13.238,-5.759 11.587002,-13.751 19.396002,-15.428 8.144,-1.766 12.798,-1.437 12.798,-1.437 -14.722,-10.371 -95.157002,20.364 -40.857002,29.166 148.084002,24.015 269.943,-10.814 231.532,-28.14"
     id="path1310"
     style="fill:#5382a1;fill-opacity:1" />
  <path
     d="m 36.002262,-135.2265 c 0,0 38.55,38.563 -36.56299983,97.862 -60.23300017,47.568 -13.73500017,74.69 -0.025,105.678 C -35.744738,36.5915 -61.546738,8.6665 -44.236738,-17.3235 c 25.407,-38.151 95.793,-56.648 80.239,-117.903"
     fill="#f8981d"
     id="path1312" />
  <path
     d="m -36.153738,234.6205 c 66.815,4.277 169.416998,-2.373 171.846998,-33.988 0,0 -4.671,11.985 -55.218998,21.503 -57.028,10.732 -127.364,9.479 -169.081,2.601 0.001,-0.001 8.54,7.068 52.453,9.884"
     id="path1314"
     style="fill:#5382a1;fill-opacity:1" />
</svg>
