<?xml version="1.0" encoding="UTF-8" standalone="no"?>
<svg
   height="529.00098"
   width="436.90826"
   viewBox="-37.3788 -76.047 117.94688 301.71703"
   version="1.1"
   id="svg3070"
   sodipodi:docname="linux.svg"
   inkscape:version="1.2 (dc2aedaf03, 2022-05-15)"
   xmlns:inkscape="http://www.inkscape.org/namespaces/inkscape"
   xmlns:sodipodi="http://sodipodi.sourceforge.net/DTD/sodipodi-0.dtd"
   xmlns:xlink="http://www.w3.org/1999/xlink"
   xmlns="http://www.w3.org/2000/svg"
   xmlns:svg="http://www.w3.org/2000/svg">
  <sodipodi:namedview
     id="namedview3072"
     pagecolor="#ffffff"
     bordercolor="#666666"
     borderopacity="1.0"
     inkscape:showpageshadow="2"
     inkscape:pageopacity="0.0"
     inkscape:pagecheckerboard="0"
     inkscape:deskcolor="#d1d1d1"
     showgrid="false"
     inkscape:zoom="1.01"
     inkscape:cx="38.118812"
     inkscape:cy="291.08911"
     inkscape:window-width="1916"
     inkscape:window-height="1024"
     inkscape:window-x="0"
     inkscape:window-y="54"
     inkscape:window-maximized="1"
     inkscape:current-layer="svg3070" />
  <defs
     id="defs2958">
    <linearGradient
       id="n">
      <stop
         offset="0"
         stop-color="#fefefc"
         id="stop2612" />
      <stop
         offset=".757"
         stop-color="#fefefc"
         id="stop2614" />
      <stop
         offset="1"
         stop-color="#d4d4d4"
         id="stop2616" />
    </linearGradient>
    <linearGradient
       id="o">
      <stop
         offset="0"
         stop-color="#fefefc"
         id="stop2619" />
      <stop
         offset=".757"
         stop-color="#fefefc"
         id="stop2621" />
      <stop
         offset="1"
         stop-color="#d4d4d4"
         id="stop2623" />
    </linearGradient>
    <linearGradient
       id="a">
      <stop
         offset="0"
         stop-color="#3e2a06"
         id="stop2626" />
      <stop
         offset="1"
         stop-color="#ad780a"
         id="stop2628" />
    </linearGradient>
    <linearGradient
       y2="293.58499"
       x2="490.12201"
       y1="371.54401"
       x1="442.039"
       gradientTransform="matrix(0.87491,0,0,0.81149,60.367,62.587)"
       gradientUnits="userSpaceOnUse"
       id="C"
       xlink:href="#a" />
    <linearGradient
       y2="293.58499"
       x2="490.12201"
       y1="371.54401"
       x1="442.039"
       gradientUnits="userSpaceOnUse"
       id="B"
       xlink:href="#a" />
    <linearGradient
       y2="293.58499"
       x2="490.12201"
       y1="371.54401"
       x1="442.039"
       gradientUnits="userSpaceOnUse"
       id="A"
       xlink:href="#a" />
    <linearGradient
       id="l">
      <stop
         offset="0"
         stop-color="#b98309"
         id="stop2634" />
      <stop
         offset="1"
         stop-color="#382605"
         id="stop2636" />
    </linearGradient>
    <linearGradient
       id="m">
      <stop
         offset="0"
         stop-color="#ebc40c"
         id="stop2639" />
      <stop
         offset="1"
         stop-color="#ebc40c"
         stop-opacity="0"
         id="stop2641" />
    </linearGradient>
    <linearGradient
       id="z">
      <stop
         offset="0"
         stop-color="#7c7c7c"
         id="stop2644" />
      <stop
         offset="1"
         stop-color="#7c7c7c"
         stop-opacity=".329"
         id="stop2646" />
    </linearGradient>
    <linearGradient
       id="k">
      <stop
         offset="0"
         stop-color="#7c7c7c"
         id="stop2649" />
      <stop
         offset="1"
         stop-color="#7c7c7c"
         stop-opacity=".329"
         id="stop2651" />
    </linearGradient>
    <linearGradient
       id="x">
      <stop
         offset="0"
         stop-color="#110800"
         id="stop2654" />
      <stop
         offset=".591"
         stop-color="#a65a00"
         stop-opacity=".8"
         id="stop2656" />
      <stop
         offset="1"
         stop-color="#ff921e"
         stop-opacity="0"
         id="stop2658" />
    </linearGradient>
    <linearGradient
       id="y">
      <stop
         offset="0"
         stop-color="#110800"
         id="stop2661" />
      <stop
         offset=".591"
         stop-color="#a65a00"
         stop-opacity=".8"
         id="stop2663" />
      <stop
         offset="1"
         stop-color="#ff921e"
         stop-opacity="0"
         id="stop2665" />
    </linearGradient>
    <linearGradient
       id="h">
      <stop
         offset="0"
         id="stop2668" />
      <stop
         offset="1"
         stop-opacity="0"
         id="stop2670" />
    </linearGradient>
    <linearGradient
       id="i">
      <stop
         offset="0"
         stop-color="#3e2a06"
         id="stop2673" />
      <stop
         offset="1"
         stop-color="#ad780a"
         id="stop2675" />
    </linearGradient>
    <linearGradient
       id="j">
      <stop
         offset="0"
         stop-color="#f3cd0c"
         id="stop2678" />
      <stop
         offset="1"
         stop-color="#f3cd0c"
         stop-opacity="0"
         id="stop2680" />
    </linearGradient>
    <linearGradient
       id="w">
      <stop
         offset="0"
         id="stop2683" />
      <stop
         offset="1"
         stop-opacity=".249"
         id="stop2685" />
    </linearGradient>
    <linearGradient
       id="v">
      <stop
         offset="0"
         id="stop2688" />
      <stop
         offset="1"
         stop-opacity=".249"
         id="stop2690" />
    </linearGradient>
    <linearGradient
       id="u">
      <stop
         offset="0"
         stop-color="#c8c8c8"
         id="stop2693" />
      <stop
         offset="1"
         stop-color="#797978"
         id="stop2695" />
    </linearGradient>
    <linearGradient
       id="s">
      <stop
         offset="0"
         stop-color="#d2940a"
         id="stop2698" />
      <stop
         offset=".751"
         stop-color="#d89c08"
         id="stop2700" />
      <stop
         offset=".866"
         stop-color="#b67e07"
         id="stop2702" />
      <stop
         offset="1"
         stop-color="#946106"
         id="stop2704" />
    </linearGradient>
    <linearGradient
       id="f">
      <stop
         offset="0"
         stop-color="#ad780a"
         id="stop2707" />
      <stop
         offset=".12"
         stop-color="#d89e08"
         id="stop2709" />
      <stop
         offset=".255"
         stop-color="#edb80b"
         id="stop2711" />
      <stop
         offset=".392"
         stop-color="#ebc80d"
         id="stop2713" />
      <stop
         offset=".527"
         stop-color="#f5d838"
         id="stop2715" />
      <stop
         offset=".769"
         stop-color="#f6d811"
         id="stop2717" />
      <stop
         offset="1"
         stop-color="#f5cd31"
         id="stop2719" />
    </linearGradient>
    <linearGradient
       id="t">
      <stop
         offset="0"
         stop-color="#3a2903"
         id="stop2722" />
      <stop
         offset=".555"
         stop-color="#735208"
         id="stop2724" />
      <stop
         offset="1"
         stop-color="#ac8c04"
         id="stop2726" />
    </linearGradient>
    <linearGradient
       id="g">
      <stop
         offset="0"
         stop-color="#f5ce2d"
         id="stop2729" />
      <stop
         offset="1"
         stop-color="#d79b08"
         id="stop2731" />
    </linearGradient>
    <linearGradient
       id="e">
      <stop
         offset="0"
         stop-color="#757574"
         stop-opacity="0"
         id="stop2734" />
      <stop
         offset=".263"
         stop-color="#757574"
         id="stop2736" />
      <stop
         offset=".5"
         stop-color="#757574"
         id="stop2738" />
      <stop
         offset="1"
         stop-color="#757574"
         stop-opacity="0"
         id="stop2740" />
    </linearGradient>
    <linearGradient
       id="d">
      <stop
         offset="0"
         stop-color="#646464"
         stop-opacity="0"
         id="stop2743" />
      <stop
         offset=".306"
         stop-color="#646464"
         stop-opacity=".583"
         id="stop2745" />
      <stop
         offset=".47"
         stop-color="#646464"
         id="stop2747" />
      <stop
         offset=".728"
         stop-color="#646464"
         stop-opacity=".257"
         id="stop2749" />
      <stop
         offset="1"
         stop-color="#646464"
         stop-opacity="0"
         id="stop2751" />
    </linearGradient>
    <linearGradient
       id="c">
      <stop
         offset="0"
         stop-color="#747474"
         id="stop2754" />
      <stop
         offset=".125"
         stop-color="#8c8c8c"
         id="stop2756" />
      <stop
         offset=".25"
         stop-color="#a4a4a4"
         id="stop2758" />
      <stop
         offset=".5"
         stop-color="#d4d4d4"
         id="stop2760" />
      <stop
         offset=".619"
         stop-color="#d4d4d4"
         id="stop2762" />
      <stop
         offset="1"
         stop-color="#7c7c7c"
         id="stop2764" />
    </linearGradient>
    <linearGradient
       id="b">
      <stop
         offset="0"
         stop-color="#949494"
         stop-opacity=".392"
         id="stop2767" />
      <stop
         offset=".5"
         stop-color="#949494"
         id="stop2769" />
      <stop
         offset="1"
         stop-color="#949494"
         stop-opacity=".392"
         id="stop2771" />
    </linearGradient>
    <linearGradient
       id="r">
      <stop
         offset="0"
         stop-color="#020204"
         id="stop2774" />
      <stop
         offset=".734"
         stop-color="#020204"
         id="stop2776" />
      <stop
         offset="1"
         stop-color="#5c5c5c"
         id="stop2778" />
    </linearGradient>
    <linearGradient
       id="q">
      <stop
         offset="0"
         stop-color="#fefefc"
         id="stop2781" />
      <stop
         offset=".757"
         stop-color="#fefefc"
         id="stop2783" />
      <stop
         offset="1"
         stop-color="#d4d4d4"
         id="stop2785" />
    </linearGradient>
    <linearGradient
       id="p">
      <stop
         offset="0"
         stop-color="#fefefc"
         id="stop2788" />
      <stop
         offset=".757"
         stop-color="#fefefc"
         id="stop2790" />
      <stop
         offset="1"
         stop-color="#d4d4d4"
         id="stop2792" />
    </linearGradient>
    <linearGradient
       y2="140.72501"
       x2="219.733"
       y1="132.77"
       x1="213.01601"
       gradientTransform="translate(-76.988003,-77.937)"
       gradientUnits="userSpaceOnUse"
       id="N"
       xlink:href="#b" />
    <linearGradient
       y2="132.487"
       x2="358.625"
       y1="119.987"
       x1="337.25"
       gradientTransform="translate(-146.99859,76.047026)"
       gradientUnits="userSpaceOnUse"
       id="Q"
       xlink:href="#c" />
    <linearGradient
       y2="127.997"
       x2="308.741"
       y1="114.562"
       x1="294.51001"
       gradientTransform="translate(-156.988,-77.937)"
       gradientUnits="userSpaceOnUse"
       id="R"
       xlink:href="#d" />
    <linearGradient
       y2="128.571"
       x2="266.62701"
       y1="115.666"
       x1="253.22701"
       gradientTransform="translate(-156.988,-77.937)"
       gradientUnits="userSpaceOnUse"
       id="T"
       xlink:href="#d" />
    <linearGradient
       y2="142.493"
       x2="169.882"
       y1="132.063"
       x1="164.049"
       gradientUnits="userSpaceOnUse"
       id="V"
       xlink:href="#e"
       gradientTransform="translate(-66.988003,-77.937)" />
    <linearGradient
       y2="157.87199"
       x2="313.33701"
       y1="158.314"
       x1="256.85699"
       gradientTransform="translate(-106.99858,76.047026)"
       gradientUnits="userSpaceOnUse"
       id="aa"
       xlink:href="#f" />
    <linearGradient
       y2="159.76801"
       x2="243.46899"
       y1="157.01801"
       x1="243.03101"
       gradientUnits="userSpaceOnUse"
       id="ag"
       xlink:href="#g"
       gradientTransform="translate(101.79275,50.092565)" />
    <linearGradient
       y2="351.487"
       x2="341.98199"
       y1="323.901"
       x1="338.28601"
       gradientTransform="translate(-209.69479,76.047026)"
       gradientUnits="userSpaceOnUse"
       id="au"
       xlink:href="#h" />
    <linearGradient
       y2="293.58499"
       x2="490.12201"
       y1="371.54401"
       x1="442.039"
       gradientUnits="userSpaceOnUse"
       id="ax"
       xlink:href="#i"
       gradientTransform="translate(103.00141,76.047026)" />
    <linearGradient
       y2="302.31699"
       x2="353.75"
       y1="289.58899"
       x1="355.164"
       gradientTransform="translate(-166.988,-77.937)"
       gradientUnits="userSpaceOnUse"
       id="aC"
       xlink:href="#j" />
    <linearGradient
       y2="279.237"
       x2="361.5"
       y1="279.362"
       x1="358.5"
       gradientUnits="userSpaceOnUse"
       id="aO"
       xlink:href="#k"
       gradientTransform="translate(103.00141,76.047026)" />
    <linearGradient
       y2="381.62"
       x2="170.864"
       y1="301.54001"
       x1="123.134"
       gradientUnits="userSpaceOnUse"
       id="aT"
       xlink:href="#l"
       gradientTransform="translate(103.00141,76.047026)" />
    <linearGradient
       y2="352.27499"
       x2="186.597"
       y1="323.991"
       x1="171.571"
       gradientTransform="translate(102.47141,74.279026)"
       gradientUnits="userSpaceOnUse"
       id="aW"
       xlink:href="#m" />
    <filter
       color-interpolation-filters="sRGB"
       height="1.2170124"
       y="-0.10850622"
       width="1.215033"
       x="-0.10751652"
       id="aU">
      <feGaussianBlur
         stdDeviation="3.924"
         id="feGaussianBlur2808" />
    </filter>
    <filter
       color-interpolation-filters="sRGB"
       id="aV"
       x="-0.075378894"
       y="-0.06973661"
       width="1.1507578"
       height="1.1394732">
      <feGaussianBlur
         stdDeviation="2.437"
         id="feGaussianBlur2811" />
    </filter>
    <filter
       color-interpolation-filters="sRGB"
       id="aX"
       x="-0.033742448"
       y="-0.018602703"
       width="1.0674849"
       height="1.0372054">
      <feGaussianBlur
         stdDeviation=".37"
         id="feGaussianBlur2814" />
    </filter>
    <filter
       color-interpolation-filters="sRGB"
       height="1.0853283"
       y="-0.042664167"
       width="1.2020348"
       x="-0.1010174"
       id="aR">
      <feGaussianBlur
         stdDeviation="1.132"
         id="feGaussianBlur2817" />
    </filter>
    <filter
       color-interpolation-filters="sRGB"
       height="1.3011402"
       y="-0.15057008"
       width="1.1408766"
       x="-0.0704383"
       id="aM">
      <feGaussianBlur
         stdDeviation="1.025"
         id="feGaussianBlur2820" />
    </filter>
    <filter
       height="1.3011402"
       y="-0.15057008"
       width="1.1408766"
       x="-0.0704383"
       id="aP"
       color-interpolation-filters="sRGB">
      <feGaussianBlur
         stdDeviation="1.025"
         id="feGaussianBlur2823" />
    </filter>
    <filter
       color-interpolation-filters="sRGB"
       height="1.4681107"
       y="-0.23405533"
       width="1.4009422"
       x="-0.20047111"
       id="aH">
      <feGaussianBlur
         stdDeviation="2.844"
         id="feGaussianBlur2826" />
    </filter>
    <filter
       color-interpolation-filters="sRGB"
       height="1.2134809"
       y="-0.10674043"
       width="1.1828488"
       x="-0.091424399"
       id="aJ">
      <feGaussianBlur
         stdDeviation="1.297"
         id="feGaussianBlur2829" />
    </filter>
    <filter
       height="1.57922"
       y="-0.28960998"
       width="1.864657"
       x="-0.4323285"
       id="aF"
       color-interpolation-filters="sRGB">
      <feGaussianBlur
         stdDeviation=".86"
         id="feGaussianBlur2832" />
    </filter>
    <filter
       color-interpolation-filters="sRGB"
       height="1.9721062"
       y="-0.48605312"
       width="2.1612104"
       x="-0.58060522"
       id="aE">
      <feGaussianBlur
         stdDeviation="2.64"
         id="feGaussianBlur2835" />
    </filter>
    <filter
       color-interpolation-filters="sRGB"
       id="av"
       x="-0.076229655"
       y="-0.068206586"
       width="1.1524593"
       height="1.1364132">
      <feGaussianBlur
         stdDeviation="2.209"
         id="feGaussianBlur2838" />
    </filter>
    <filter
       color-interpolation-filters="sRGB"
       height="1.2860167"
       y="-0.14300836"
       width="1.2900488"
       x="-0.14502438"
       id="az">
      <feGaussianBlur
         stdDeviation="4.779"
         id="feGaussianBlur2841" />
    </filter>
    <filter
       color-interpolation-filters="sRGB"
       height="1.2499311"
       y="-0.12496554"
       width="1.2306201"
       x="-0.11531003"
       id="aB">
      <feGaussianBlur
         stdDeviation="3.173"
         id="feGaussianBlur2844" />
    </filter>
    <filter
       height="1.2582789"
       y="-0.12913946"
       width="1.0417831"
       x="-0.020891564"
       id="aD"
       color-interpolation-filters="sRGB">
      <feGaussianBlur
         stdDeviation=".479"
         id="feGaussianBlur2847" />
    </filter>
    <filter
       height="1.3189196"
       y="-0.15945978"
       width="1.3551711"
       x="-0.17758556"
       id="at"
       color-interpolation-filters="sRGB">
      <feGaussianBlur
         stdDeviation=".901"
         id="feGaussianBlur2850" />
    </filter>
    <filter
       color-interpolation-filters="sRGB"
       id="as"
       x="-0.81647608"
       width="2.6329522"
       y="-0.057810134"
       height="1.1156203">
      <feGaussianBlur
         stdDeviation="1.446"
         id="feGaussianBlur2853" />
    </filter>
    <filter
       color-interpolation-filters="sRGB"
       id="ar"
       x="-0.086856312"
       y="-0.081231409"
       width="1.1737126"
       height="1.1624628">
      <feGaussianBlur
         stdDeviation=".785"
         id="feGaussianBlur2856" />
    </filter>
    <filter
       color-interpolation-filters="sRGB"
       id="ap"
       x="-0.050783005"
       y="-0.073255908"
       width="1.101566"
       height="1.1465118">
      <feGaussianBlur
         stdDeviation="1.138"
         id="feGaussianBlur2859" />
    </filter>
    <filter
       color-interpolation-filters="sRGB"
       id="an"
       x="-0.049888469"
       y="-0.046192529"
       width="1.0997769"
       height="1.0923851">
      <feGaussianBlur
         stdDeviation=".643"
         id="feGaussianBlur2862" />
    </filter>
    <filter
       color-interpolation-filters="sRGB"
       height="1.0800869"
       y="-0.04004344"
       width="1.2350471"
       x="-0.11752353"
       id="al">
      <feGaussianBlur
         stdDeviation="1.352"
         id="feGaussianBlur2865" />
    </filter>
    <filter
       id="Y"
       x="-0.15531028"
       width="1.3106206"
       y="-0.220832"
       height="1.441664"
       color-interpolation-filters="sRGB">
      <feGaussianBlur
         stdDeviation=".899"
         id="feGaussianBlur2868" />
    </filter>
    <filter
       id="Z"
       color-interpolation-filters="sRGB"
       x="-0.034389387"
       y="-0.079362597"
       width="1.0687788"
       height="1.1587252">
      <feGaussianBlur
         stdDeviation=".758"
         id="feGaussianBlur2871" />
    </filter>
    <filter
       color-interpolation-filters="sRGB"
       height="1.2606039"
       y="-0.13030196"
       width="1.3220051"
       x="-0.16100257"
       id="ab">
      <feGaussianBlur
         stdDeviation=".849"
         id="feGaussianBlur2874" />
    </filter>
    <filter
       id="ad"
       color-interpolation-filters="sRGB"
       x="-0.046594786"
       y="-0.088778057"
       width="1.0931896"
       height="1.1775561">
      <feGaussianBlur
         stdDeviation=".11"
         id="feGaussianBlur2877" />
    </filter>
    <filter
       height="1.2106881"
       y="-0.10534404"
       width="1.2320605"
       x="-0.11603024"
       id="af"
       color-interpolation-filters="sRGB">
      <feGaussianBlur
         stdDeviation=".11"
         id="feGaussianBlur2880" />
    </filter>
    <filter
       id="ah"
       x="-0.12147239"
       width="1.2429448"
       y="-0.13608247"
       height="1.2721649"
       color-interpolation-filters="sRGB">
      <feGaussianBlur
         stdDeviation=".264"
         id="feGaussianBlur2883" />
    </filter>
    <filter
       id="W"
       x="-0.23465206"
       width="1.4693041"
       y="-0.14618644"
       height="1.2923729"
       color-interpolation-filters="sRGB">
      <feGaussianBlur
         stdDeviation=".513"
         id="feGaussianBlur2886" />
    </filter>
    <filter
       id="U"
       color-interpolation-filters="sRGB"
       x="-0.022587843"
       y="-0.025698527"
       width="1.0451757"
       height="1.0513971">
      <feGaussianBlur
         stdDeviation=".135"
         id="feGaussianBlur2889" />
    </filter>
    <filter
       id="S"
       color-interpolation-filters="sRGB"
       x="-0.022992701"
       y="-0.024922294"
       width="1.0459854"
       height="1.0498446">
      <feGaussianBlur
         stdDeviation=".147"
         id="feGaussianBlur2892" />
    </filter>
    <filter
       id="M"
       x="-0.1579965"
       width="1.315993"
       y="-0.20929479"
       height="1.4185896"
       color-interpolation-filters="sRGB">
      <feGaussianBlur
         stdDeviation=".249"
         id="feGaussianBlur2895" />
    </filter>
    <filter
       id="O"
       x="-0.17851601"
       width="1.357032"
       y="-0.18117567"
       height="1.3623513"
       color-interpolation-filters="sRGB">
      <feGaussianBlur
         stdDeviation=".519"
         id="feGaussianBlur2898" />
    </filter>
    <filter
       height="1.6163963"
       y="-0.30819815"
       width="1.5842718"
       x="-0.29213589"
       id="L"
       color-interpolation-filters="sRGB">
      <feGaussianBlur
         stdDeviation="1.74"
         id="feGaussianBlur2901" />
    </filter>
    <filter
       color-interpolation-filters="sRGB"
       id="J"
       x="-0.05417541"
       width="1.1083508"
       y="-0.10741608"
       height="1.2148322">
      <feGaussianBlur
         stdDeviation="1.361"
         id="feGaussianBlur2904" />
    </filter>
    <filter
       color-interpolation-filters="sRGB"
       id="G"
       x="-0.036535653"
       y="-0.074065448"
       width="1.0730713"
       height="1.1481309">
      <feGaussianBlur
         stdDeviation=".932"
         id="feGaussianBlur2907" />
    </filter>
    <filter
       color-interpolation-filters="sRGB"
       id="F"
       x="-0.076396105"
       width="1.1527922"
       y="-0.12922271"
       height="1.2584454">
      <feGaussianBlur
         stdDeviation="2.036"
         id="feGaussianBlur2910" />
    </filter>
    <radialGradient
       xlink:href="#n"
       id="E"
       gradientUnits="userSpaceOnUse"
       gradientTransform="matrix(1.08578,-0.03431,0.03944,1.24799,-154.542,-26.543)"
       cx="223.196"
       cy="137.661"
       fx="223.196"
       fy="137.661"
       r="14.572" />
    <radialGradient
       xlink:href="#o"
       id="D"
       gradientUnits="userSpaceOnUse"
       gradientTransform="matrix(0.81524,-0.03431,0.02961,1.24799,-129.437,-26.543)"
       cx="223.196"
       cy="137.661"
       fx="223.196"
       fy="137.661"
       r="14.572" />
    <radialGradient
       r="14.572"
       fy="137.661"
       fx="223.196"
       cy="137.661"
       cx="223.196"
       gradientTransform="matrix(0.81524,-0.03431,0.02961,1.24799,-86.425003,-104.48)"
       gradientUnits="userSpaceOnUse"
       id="H"
       xlink:href="#p" />
    <radialGradient
       r="14.572"
       fy="137.661"
       fx="223.196"
       cy="137.661"
       cx="223.196"
       gradientTransform="matrix(1.08578,-0.03431,0.03944,1.24799,-111.53,-104.48)"
       gradientUnits="userSpaceOnUse"
       id="I"
       xlink:href="#q" />
    <radialGradient
       r="15.382"
       fy="150.651"
       fx="275.53799"
       cy="150.651"
       cx="275.53799"
       gradientTransform="matrix(0.69785,-0.50717,0.46034,0.6334,-149.09,114.093)"
       gradientUnits="userSpaceOnUse"
       id="K"
       xlink:href="#r" />
    <radialGradient
       r="31.111"
       fy="193.099"
       fx="294.48499"
       cy="193.099"
       cx="294.48499"
       gradientTransform="matrix(0.93619,-0.3864,0.27133,0.65739,-141.47359,222.77003)"
       gradientUnits="userSpaceOnUse"
       id="X"
       xlink:href="#s" />
    <radialGradient
       r="3.23"
       fy="147.093"
       fx="77.671997"
       cy="147.093"
       cx="77.671997"
       gradientTransform="matrix(1,0,0,0.58333,103.00141,137.46303)"
       gradientUnits="userSpaceOnUse"
       id="ac"
       xlink:href="#t" />
    <radialGradient
       r="1.535"
       fy="147.44099"
       fx="63.125"
       cy="147.44099"
       cx="63.125"
       gradientTransform="matrix(1,0,0,1.07512,103.00141,64.953026)"
       gradientUnits="userSpaceOnUse"
       id="ae"
       xlink:href="#t" />
    <radialGradient
       r="35.511002"
       fy="126.535"
       fx="268.07001"
       cy="126.535"
       cx="268.07001"
       gradientTransform="matrix(0.20141,-0.03316,0.03065,0.18616,99.875413,190.08303)"
       gradientUnits="userSpaceOnUse"
       id="aj"
       xlink:href="#u" />
    <radialGradient
       r="27.391001"
       fy="220.53799"
       fx="336.224"
       cy="220.53799"
       cx="336.224"
       gradientTransform="matrix(-0.69844,0,0,0.76336,255.53879,126.26703)"
       gradientUnits="userSpaceOnUse"
       id="am"
       xlink:href="#v" />
    <radialGradient
       r="27.391001"
       fy="236.366"
       fx="312.14499"
       cy="236.366"
       cx="312.14499"
       gradientTransform="matrix(1,0,0,0.76336,-166.988,-27.716996)"
       gradientUnits="userSpaceOnUse"
       id="ao"
       xlink:href="#w" />
    <radialGradient
       r="10.845"
       fy="225.13499"
       fx="275.55399"
       cy="225.13499"
       cx="275.55399"
       gradientTransform="matrix(1,0,0,1.06923,-166.988,-92.797)"
       gradientUnits="userSpaceOnUse"
       id="aq"
       xlink:href="#w" />
    <radialGradient
       r="16.846001"
       fy="303.41501"
       fx="363.34"
       cy="303.41501"
       cx="363.34"
       gradientTransform="matrix(1.3082,0.35053,-0.36795,1.37322,-167.498,-318.287)"
       gradientUnits="userSpaceOnUse"
       id="aG"
       xlink:href="#x" />
    <radialGradient
       r="16.846001"
       fy="303.41501"
       fx="363.34"
       cy="303.41501"
       cx="363.34"
       gradientTransform="matrix(1.3082,0.35053,-0.36795,1.37322,-207.50859,-135.15721)"
       gradientUnits="userSpaceOnUse"
       id="aI"
       xlink:href="#y" />
    <radialGradient
       r="20.538"
       fy="246.858"
       fx="382.23499"
       cy="246.858"
       cx="382.23499"
       gradientTransform="matrix(0.36025,0.1568,-0.07247,0.1665,363.61841,257.98503)"
       gradientUnits="userSpaceOnUse"
       id="aL"
       xlink:href="#z" />
    <clipPath
       id="aS"
       clipPathUnits="userSpaceOnUse">
      <path
         d="m 137.577,281.02 c 1.6,-0.664 3.398,-0.785 5.1,-0.47 1.703,0.313 3.312,1.049 4.744,2.022 2.864,1.946 4.988,4.778 7.023,7.58 4.672,6.433 9.169,13.002 13.245,19.829 3.306,5.537 6.343,11.257 10.164,16.453 2.494,3.392 5.306,6.54 7.813,9.922 2.506,3.383 4.728,7.056 5.84,11.117 1.443,5.276 0.884,11.092 -1.627,15.953 -1.767,3.419 -4.477,6.352 -7.773,8.339 -3.296,1.986 -7.17,3.014 -11.016,2.87 -6.114,-0.23 -11.7,-3.285 -17.384,-5.55 -11.58,-4.612 -24.16,-6.059 -36.097,-9.651 -3.668,-1.104 -7.275,-2.41 -10.97,-3.426 -1.64,-0.452 -3.308,-0.849 -4.858,-1.552 -1.55,-0.703 -3,-1.749 -3.862,-3.217 -0.666,-1.134 -0.948,-2.47 -0.93,-3.785 0.018,-1.316 0.326,-2.615 0.774,-3.852 0.896,-2.474 2.343,-4.713 3.32,-7.157 1.595,-3.989 1.882,-8.388 1.666,-12.679 -0.215,-4.291 -0.91,-8.545 -1.204,-12.831 -0.131,-1.914 -0.18,-3.853 0.185,-5.736 0.365,-1.884 1.175,-3.725 2.557,-5.056 1.274,-1.226 2.965,-1.955 4.697,-2.316 1.731,-0.361 3.515,-0.378 5.284,-0.338 1.768,0.04 3.54,0.135 5.303,-0.01 1.763,-0.145 3.534,-0.54 5.07,-1.419 1.46,-0.834 2.653,-2.074 3.643,-3.434 0.99,-1.36 1.789,-2.846 2.609,-4.314 0.82,-1.468 1.668,-2.931 2.741,-4.226 1.074,-1.294 2.39,-2.423 3.943,-3.067"
         fill="#402c07"
         id="path2928" />
    </clipPath>
    <clipPath
       id="aQ"
       clipPathUnits="userSpaceOnUse">
      <path
         d="m 248.06,184.612 c -2.6,3.44 -5.233,6.856 -7.896,10.247 a 928.914,928.914 0 0 1 -8.588,10.752 c -3.54,4.374 -7.151,8.792 -9.449,13.93 -1.974,4.414 -2.91,9.207 -4.265,13.85 -1.538,5.27 -3.626,10.37 -5.97,15.335 -2.165,4.586 -4.55,9.063 -6.94,13.536 -1.738,3.254 -3.504,6.581 -4.107,10.22 -0.476,2.877 -0.199,5.845 0.534,8.667 0.732,2.822 1.91,5.51 3.237,8.106 5.668,11.075 14.17,20.622 24.242,27.925 a 85.153,85.153 0 0 0 14.603,8.526 c 2.782,1.27 5.713,2.404 8.771,2.457 1.53,0.027 3.075,-0.225 4.475,-0.84 1.4,-0.616 2.65,-1.604 3.482,-2.888 1.023,-1.577 1.37,-3.538 1.165,-5.407 -0.205,-1.87 -0.935,-3.653 -1.913,-5.259 -2.39,-3.922 -6.165,-6.76 -9.797,-9.573 -7.84,-6.074 -15.424,-12.48 -22.682,-19.24 -2.049,-1.909 -4.098,-3.878 -5.53,-6.284 -1.394,-2.344 -2.148,-5.014 -2.658,-7.693 -1.4,-7.349 -1.04,-15.082 1.46,-22.133 0.978,-2.759 2.27,-5.392 3.518,-8.04 2.162,-4.588 4.211,-9.263 7.05,-13.467 3.532,-5.233 8.244,-9.673 11.15,-15.278 2.455,-4.734 3.494,-10.058 4.363,-15.318 a 298.759,298.759 0 0 0 1.746,-12.13"
         fill="none"
         stroke="#729fcf"
         stroke-width="0.125"
         id="path2931" />
    </clipPath>
    <clipPath
       id="aK"
       clipPathUnits="userSpaceOnUse">
      <path
         d="m 386.188,285.328 c -0.406,-1.104 -1.119,-2.082 -1.991,-2.87 -0.872,-0.788 -1.9,-1.392 -2.983,-1.852 -2.165,-0.918 -4.52,-1.261 -6.831,-1.695 -2.18,-0.41 -4.342,-0.907 -6.528,-1.278 -2.272,-0.385 -4.618,-0.632 -6.866,-0.125 -1.965,0.443 -3.784,1.459 -5.271,2.819 -1.488,1.36 -2.65,3.056 -3.485,4.89 -1.473,3.23 -1.935,6.865 -1.654,10.403 0.209,2.633 0.875,5.346 2.608,7.34 1.401,1.61 3.388,2.614 5.434,3.22 a 18.392,18.392 0 0 0 10.86,-0.155 28.586,28.586 0 0 0 14.331,-10.78 c 1.139,-1.649 2.112,-3.447 2.553,-5.403 0.336,-1.49 0.349,-3.08 -0.177,-4.514"
         fill="none"
         stroke="#ce5c00"
         id="path2934" />
    </clipPath>
    <clipPath
       id="aN"
       clipPathUnits="userSpaceOnUse">
      <path
         d="m 386.188,285.328 c -0.406,-1.104 -1.119,-2.082 -1.991,-2.87 -0.872,-0.788 -1.9,-1.392 -2.983,-1.852 -2.165,-0.918 -4.52,-1.261 -6.831,-1.695 -2.18,-0.41 -4.342,-0.907 -6.528,-1.278 -2.272,-0.385 -4.618,-0.632 -6.866,-0.125 -1.965,0.443 -3.784,1.459 -5.271,2.819 -1.488,1.36 -2.65,3.056 -3.485,4.89 -1.473,3.23 -1.935,6.865 -1.654,10.403 0.209,2.633 0.875,5.346 2.608,7.34 1.401,1.61 3.388,2.614 5.434,3.22 a 18.392,18.392 0 0 0 10.86,-0.155 28.586,28.586 0 0 0 14.331,-10.78 c 1.139,-1.649 2.112,-3.447 2.553,-5.403 0.336,-1.49 0.349,-3.08 -0.177,-4.514"
         fill="none"
         stroke="#ce5c00"
         id="path2937" />
    </clipPath>
    <clipPath
       id="aw"
       clipPathUnits="userSpaceOnUse">
      <path
         d="m 516.006,331.876 a 16.933,16.933 0 0 1 -2.816,4.738 c -2.624,3.115 -6.268,5.17 -9.897,7.02 -6.188,3.154 -12.601,5.921 -18.42,9.716 -3.897,2.543 -7.495,5.527 -10.86,8.743 -2.877,2.75 -5.605,5.687 -8.832,8.017 -3.256,2.352 -7.02,4.055 -10.99,4.65 -4.83,0.725 -9.822,-0.212 -14.3,-2.164 -3.137,-1.367 -6.155,-3.323 -7.963,-6.229 -1.814,-2.917 -2.228,-6.488 -2.232,-9.924 -0.008,-6.076 1.118,-12.09 2.178,-18.073 0.881,-4.972 1.72,-9.955 2.26,-14.975 0.984,-9.131 0.977,-18.353 0.32,-27.513 -0.11,-1.535 -0.237,-3.084 -0.008,-4.605 0.23,-1.52 0.855,-3.036 2.021,-4.04 1.077,-0.926 2.521,-1.335 3.94,-1.414 1.418,-0.078 2.834,0.147 4.24,0.352 3.312,0.484 6.65,0.865 9.888,1.717 2.043,0.537 4.034,1.259 6.073,1.81 3.402,0.92 6.966,1.362 10.467,0.952 3.77,-0.44 7.43,-1.856 11.224,-1.764 1.556,0.037 3.101,0.331 4.586,0.8 1.516,0.477 3.01,1.161 4.123,2.295 0.846,0.86 1.436,1.945 1.879,3.068 0.66,1.674 1.015,3.457 1.167,5.25 0.135,1.588 0.113,3.194 0.414,4.76 0.495,2.574 1.848,4.922 3.529,6.934 1.68,2.012 3.69,3.72 5.696,5.408 2,1.68 4.01,3.355 6.167,4.828 1.012,0.692 2.056,1.34 3.017,2.1 0.961,0.762 1.845,1.648 2.446,2.716 a 6.785,6.785 0 0 1 0.683,4.827"
         fill="url(#A)"
         id="path2940" />
    </clipPath>
    <clipPath
       id="ay"
       clipPathUnits="userSpaceOnUse">
      <path
         d="m 516.006,331.876 a 16.933,16.933 0 0 1 -2.816,4.738 c -2.624,3.115 -6.268,5.17 -9.897,7.02 -6.188,3.154 -12.601,5.921 -18.42,9.716 -3.897,2.543 -7.495,5.527 -10.86,8.743 -2.877,2.75 -5.605,5.687 -8.832,8.017 -3.256,2.352 -7.02,4.055 -10.99,4.65 -4.83,0.725 -9.822,-0.212 -14.3,-2.164 -3.137,-1.367 -6.155,-3.323 -7.963,-6.229 -1.814,-2.917 -2.228,-6.488 -2.232,-9.924 -0.008,-6.076 1.118,-12.09 2.178,-18.073 0.881,-4.972 1.72,-9.955 2.26,-14.975 0.984,-9.131 0.977,-18.353 0.32,-27.513 -0.11,-1.535 -0.237,-3.084 -0.008,-4.605 0.23,-1.52 0.855,-3.036 2.021,-4.04 1.077,-0.926 2.521,-1.335 3.94,-1.414 1.418,-0.078 2.834,0.147 4.24,0.352 3.312,0.484 6.65,0.865 9.888,1.717 2.043,0.537 4.034,1.259 6.073,1.81 3.402,0.92 6.966,1.362 10.467,0.952 3.77,-0.44 7.43,-1.856 11.224,-1.764 1.556,0.037 3.101,0.331 4.586,0.8 1.516,0.477 3.01,1.161 4.123,2.295 0.846,0.86 1.436,1.945 1.879,3.068 0.66,1.674 1.015,3.457 1.167,5.25 0.135,1.588 0.113,3.194 0.414,4.76 0.495,2.574 1.848,4.922 3.529,6.934 1.68,2.012 3.69,3.72 5.696,5.408 2,1.68 4.01,3.355 6.167,4.828 1.012,0.692 2.056,1.34 3.017,2.1 0.961,0.762 1.845,1.648 2.446,2.716 a 6.785,6.785 0 0 1 0.683,4.827"
         fill="url(#B)"
         id="path2943" />
    </clipPath>
    <clipPath
       id="aA"
       clipPathUnits="userSpaceOnUse">
      <path
         d="m 511.827,331.9 a 14.175,14.175 0 0 1 -2.464,3.845 c -2.325,2.588 -5.507,4.222 -8.658,5.696 -5.42,2.536 -11.001,4.78 -16.116,7.885 -3.383,2.055 -6.537,4.472 -9.502,7.095 -2.524,2.232 -4.93,4.627 -7.727,6.506 -2.883,1.936 -6.176,3.299 -9.616,3.773 -4.218,0.582 -8.553,-0.183 -12.51,-1.756 -2.71,-1.077 -5.367,-2.618 -6.967,-5.055 -1.539,-2.341 -1.934,-5.251 -1.954,-8.053 -0.035,-4.938 0.965,-9.818 1.906,-14.666 0.782,-4.03 1.527,-8.072 1.978,-12.152 0.817,-7.406 0.66,-14.886 0.28,-22.327 -0.065,-1.249 -0.134,-2.51 0.078,-3.743 0.213,-1.232 0.737,-2.452 1.682,-3.271 0.94,-0.814 2.21,-1.16 3.451,-1.212 1.242,-0.052 2.477,0.164 3.705,0.35 2.89,0.436 5.811,0.709 8.652,1.392 1.787,0.43 3.531,1.02 5.313,1.47 2.986,0.753 6.097,1.107 9.158,0.772 3.294,-0.36 6.507,-1.51 9.82,-1.432 1.358,0.032 2.707,0.272 4.013,0.65 1.312,0.38 2.617,0.92 3.607,1.862 0.725,0.69 1.25,1.57 1.643,2.49 0.577,1.348 0.887,2.8 1.021,4.26 0.12,1.288 0.105,2.594 0.363,3.862 0.437,2.149 1.64,4.081 3.115,5.704 1.475,1.622 3.224,2.967 4.956,4.312 1.756,1.364 3.51,2.74 5.396,3.918 0.882,0.552 1.793,1.06 2.634,1.672 0.842,0.612 1.62,1.339 2.145,2.236 a 5.42,5.42 0 0 1 0.598,3.917"
         fill="url(#C)"
         id="path2946" />
    </clipPath>
    <clipPath
       id="ak"
       clipPathUnits="userSpaceOnUse">
      <path
         d="m 304.847,225.45 c 6.017,4.923 9.777,12.317 10.943,20.003 1.826,12.031 -2.346,24.074 -6.445,35.532 -0.818,2.285 -1.64,4.59 -1.965,6.995 -0.325,2.405 -0.12,4.949 1.03,7.086 1.302,2.425 3.732,4.125 6.366,4.923 2.589,0.785 5.394,0.761 8.015,0.092 2.62,-0.668 5.06,-1.967 7.187,-3.64 5.48,-4.31 8.758,-10.985 10.01,-17.843 1.253,-6.859 0.64,-13.93 -0.55,-20.799 -1.624,-9.369 -4.31,-18.54 -7.74,-27.407 -2.518,-6.508 -5.469,-12.911 -9.618,-18.52 -4.046,-5.47 -9.162,-10.09 -13.104,-15.636 -2.732,-3.844 -4.9,-8.13 -8.191,-11.508 -1.646,-1.688 -3.577,-3.135 -5.77,-4.001 -2.193,-0.866 -4.664,-1.125 -6.933,-0.483 -1.504,0.426 -2.892,1.238 -4.038,2.302 -1.145,1.064 -2.052,2.376 -2.692,3.803 -1.28,2.853 -1.477,6.112 -0.965,9.198 0.66,3.983 2.444,7.693 4.465,11.188 2.274,3.932 4.918,7.72 8.385,10.654 3.598,3.047 7.961,5.074 11.61,8.06"
         fill="none"
         stroke="#c17d11"
         id="path2949" />
    </clipPath>
    <clipPath
       clipPathUnits="userSpaceOnUse"
       id="ai">
      <path
         d="m 54.232,122.362 c -1.78,0.097 -3.484,0.92 -4.787,2.137 -1.304,1.218 -2.222,2.812 -2.787,4.503 -1.13,3.384 -0.875,7.052 -0.618,10.61 0.232,3.222 0.47,6.506 1.676,9.502 0.604,1.498 1.45,2.91 2.58,4.064 1.13,1.153 2.553,2.042 4.12,2.434 1.468,0.368 3.037,0.292 4.482,-0.162 1.445,-0.454 2.764,-1.279 3.846,-2.338 1.58,-1.545 2.643,-3.566 3.254,-5.69 0.61,-2.123 0.784,-4.35 0.752,-6.56 -0.04,-2.764 -0.4,-5.538 -1.266,-8.164 -0.865,-2.626 -2.245,-5.103 -4.173,-7.086 -0.933,-0.96 -1.997,-1.805 -3.198,-2.397 -1.201,-0.593 -2.544,-0.926 -3.88,-0.853"
         fill="url(#D)"
         id="path2952" />
    </clipPath>
    <clipPath
       clipPathUnits="userSpaceOnUse"
       id="P">
      <path
         d="m 85.75,122.362 c -2.78,1.91 -5.11,4.575 -6.25,7.75 -1.436,4.002 -0.886,8.48 0.5,12.5 1.42,4.117 3.794,8.041 7.38,10.513 1.792,1.235 3.867,2.083 6.03,2.338 2.162,0.256 4.409,-0.095 6.34,-1.1 2.353,-1.227 4.148,-3.374 5.262,-5.782 1.115,-2.408 1.589,-5.07 1.738,-7.719 0.19,-3.375 -0.14,-6.806 -1.25,-10 -1.205,-3.469 -3.39,-6.67 -6.473,-8.666 -1.541,-0.998 -3.292,-1.684 -5.11,-1.936 -1.82,-0.251 -3.705,-0.063 -5.417,0.602 -0.975,0.38 -1.887,0.908 -2.75,1.5"
         fill="url(#E)"
         id="path2955" />
    </clipPath>
  </defs>
  <path
     d="m 80.534585,27.749974 c 3.256,7.09 6.891,14.003 10.121,21.106 6.216,13.669 10.937005,28.103 12.898005,42.99 1.96199,14.887996 1.10499,30.257996 -3.553,44.533996 -5.259005,16.112 -15.240005,30.447 -27.470005,42.18 -14.468,13.88 -33.04,24.582 -53.074,25.37 -13.0539978,0.515 -26.0499978,-3.217 -37.609998,-9.302 -9.716,-5.113 -18.584,-11.927 -25.66,-20.32 -7.077,-8.394 -12.331,-18.388 -14.764,-29.093 -2.996,-13.184 -1.641,-27.179 2.894,-39.915 3.243,-9.107996 8.05,-17.586996 11.472,-26.629996 3.74,-9.88 5.828,-20.43 10.783,-29.76 4.491,-8.46 11.226,-15.687 14.804,-24.57 2.137,-5.307 3.064,-11.006 4.444,-16.5570008 1.38,-5.552 3.312,-11.145 7.0700002,-15.457 4.528,-5.1969992 11.343,-8.0149992 18.1899998,-8.8049992 6.847998,-0.79 13.777998,0.277 20.498998,1.809 a 139.991,139.991 0 0 1 15.805,4.574 c 4.413,1.5699992 8.786,3.3979992 12.602,6.1139992 5.199,3.69999992 9.16,8.91 12.315,14.4570008 3.155,5.547 5.57,11.476 8.234,17.275 z"
     fill="#020204"
     id="path2960" />
  <path
     d="m 23.045585,204.05497 c 5.501,0.32 10.991,0.854 16.44,1.677 4.792,0.724 9.55,1.67 14.26,2.812 7.377,1.787 14.728,4.067 22.315,4.284 1.998,0.057 4.01,-0.032 5.96,-0.467 1.951,-0.434 3.843,-1.225 5.405,-2.471 2.33,-1.857 3.81,-4.658 4.358,-7.587 0.547,-2.928 0.208,-5.976 -0.65,-8.829 -1.715,-5.706 -5.39,-10.575 -8.436,-15.696 -1.745,-2.932 -3.3,-5.98 -5.19,-8.82 -1.889,-2.841 -4.15,-5.502 -7.019,-7.35 -3.967,-2.558 -8.887,-3.392 -13.585,-2.924 -4.697,0.468 -9.2,2.165 -13.392,4.336 -5.876,3.042 -11.407,7.22 -14.612,13.009 -1.115,2.015 -1.925,4.18 -2.872,6.28 -0.947,2.1 -2.056,4.166 -3.66,5.818 -1.79,1.841 -4.112,3.084 -5.963,4.863 -0.926,0.89 -1.736,1.925 -2.209998,3.118 -0.475,1.193 -0.592,2.556 -0.159,3.765 0.297,0.829 0.840998,1.558 1.509998,2.13 0.67,0.57 1.463,0.988 2.294,1.28 1.66,0.584 3.449,0.67 5.206,0.772 z"
     fill="#020204"
     id="path2962" />
  <path
     d="m 6.6975872,203.70097 c -4.584,0.106 -9.12,0.926 -13.61,1.854 a 248.638,248.638 0 0 0 -12.8040002,2.989 c -7.154,1.878 -14.318,4.126 -21.712,4.284 -1.946,0.041 -3.906,-0.065 -5.803,-0.504 -1.896,-0.439 -3.733,-1.22 -5.255,-2.434 -2.325,-1.854 -3.803,-4.65 -4.35,-7.572 -0.548,-2.923 -0.213,-5.964 0.635,-8.814 1.697,-5.7 5.336,-10.579 8.316,-15.726 1.693,-2.924 3.187,-5.966 5.018,-8.807 1.83,-2.84 4.036,-5.507 6.86,-7.363 3.848,-2.53 8.647,-3.388 13.23,-2.936 4.584,0.452 8.975,2.14 13.0180002,4.348 5.706,3.117 10.916,7.406 14.216,13.009 2.315,3.93 3.65,8.424 6.3559998,12.098 1.456,1.977 3.289,3.686 4.499998,5.822 0.607,1.069 1.05,2.246 1.154,3.47 0.104,1.223 -0.151,2.497 -0.84,3.514 -0.455,0.673 -1.086998,1.217 -1.792998,1.619 -0.706,0.402 -1.486,0.664 -2.28,0.83 -1.5909998,0.333 -3.2319998,0.282 -4.8559998,0.32 z M -18.916413,12.814974 c -0.644,-7.7500008 -0.49,-15.5430008 -0.78,-23.315 -0.277,-7.473 -0.966,-14.942 -0.714,-22.416 0.256,-7.61 1.53,-15.309 4.914,-22.13 3.385,-6.826 8.8790002,-12.609 15.58500017,-16.223 6.31000003,-3.4 13.56599983,-4.853 20.73399783,-4.775 9.719,0.106 19.464,3.042 27.334,8.744 4.933,3.574 9.085,8.179 12.358,13.316 2.794,4.385 4.964,9.174 6.325,14.191 2.793,10.29 2.131,21.148 2.674,31.7969992 0.515,10.091 2.13,20.1600008 1.582,30.2500008 -0.12,2.191 -0.357,4.434 -1.334,6.399 -0.951,1.915 -2.568,3.455 -4.424,4.517 -1.857,1.061 -3.947,1.665 -6.061,1.991 -4.227,0.653 -8.549,0.222 -12.808,0.617 -6.18,0.573 -12.074,2.865 -18.208,3.814 -7.31,1.13 -14.756998,0.328 -22.1479978,0.033 -2.96,-0.118 -5.92900003,-0.155 -8.868,-0.523 -2.94,-0.369 -5.87,-1.081 -8.4840002,-2.474 -1.611,-0.859 -3.093,-1.975 -4.296,-3.35 -1.202,-1.373 -2.119,-3.008 -2.576,-4.776 -0.688,-2.653 -0.325,-5.446 -0.316,-8.186 0.01,-2.507 -0.281,-5.003 -0.489,-7.5 z"
     fill="#020204"
     id="path2964" />
  <path
     d="m -7.2854128,9.8299732 c -1.046,1.3110008 -1.727,2.8870008 -2.139,4.5140008 -0.412,1.626 -0.562,3.308 -0.6270002,4.984 -0.128,3.353 0.077,6.77 -0.81,10.006 -0.95,3.46 -3.076,6.457 -5.158,9.378 -3.605,5.06 -7.249,10.25 -9.027,16.202 a 28.776,28.776 0 0 0 -1.049,11.165 118.066,118.066 0 0 0 -10.423,18.78 c -4.386,9.942 -7.396,20.526996 -8.454,31.341996 -1.296,13.242 0.398,26.862 5.627,39.096 3.782,8.846 9.418,16.944 16.686,23.247 a 57.051,57.051 0 0 0 12.19,8.097 c 15.2120002,7.477 34.012998,7.491 48.972998,-0.48 7.818,-4.166 14.417,-10.258 20.78,-16.423 3.832,-3.712 7.644,-7.512 10.567,-11.975 5.627,-8.592 7.587,-19.036 8.805,-29.234 2.13,-17.834 2.199,-36.669996 -5.621,-52.838996 a 58.287,58.287 0 0 0 -10.58,-15.14 82.973,82.973 0 0 0 -6.693,-22.542 c -2.37,-5.155 -5.268,-10.062 -7.47,-15.291 -0.905,-2.147 -1.69,-4.345 -2.694,-6.447 -1.004,-2.102 -2.241,-4.125 -3.925,-5.736 -1.723,-1.6490008 -3.87,-2.8180008 -6.135,-3.5660008 -2.265,-0.748 -4.65,-1.087 -7.032,-1.207 -4.765,-0.24 -9.539,0.384 -14.304998,0.195 -3.795,-0.151 -7.5779998,-0.816 -11.3699998,-0.592 -1.89500003,0.112 -3.79000003,0.45 -5.55,1.165 -1.76,0.714 -3.381,1.817 -4.566,3.301 z"
     fill="#fdfdfb"
     id="path2966" />
  <path
     d="m -9.6214128,27.616974 c 1.702,4.938 5.13,9.152 9.18499997,12.444 1.349,1.095 2.78300003,2.104 4.36700003,2.817 1.584,0.712 3.331,1.12 5.062,0.972 1.6949998,-0.144 3.3069998,-0.809 4.7889998,-1.645 1.479998,-0.837 2.855998,-1.847 4.292998,-2.758 2.462,-1.56 5.1,-2.821 7.657,-4.22 3.082,-1.687 6.07,-3.59 8.665,-5.96 1.187,-1.084 2.295,-2.268 3.607,-3.199 1.312,-0.93 2.883,-1.605 4.488,-1.496 1.204,0.082 2.333,0.594 3.512,0.848 0.59,0.127 1.201,0.189 1.798,0.098 0.596,-0.09 1.18,-0.344 1.597,-0.78 0.513,-0.532 0.737,-1.299 0.71,-2.038 -0.027,-0.738 -0.284,-1.453 -0.629,-2.107 -0.689,-1.308 -1.734,-2.435 -2.2,-3.838 -0.414,-1.249 -0.33,-2.599 -0.294,-3.914 0.037,-1.315 0.008,-2.69 -0.599,-3.8570008 -0.461,-0.89 -1.236,-1.595 -2.121,-2.064 -0.886,-0.468 -1.879,-0.71 -2.876,-0.803 -1.995,-0.188 -3.994,0.2 -5.995,0.313 -2.656,0.15 -5.322,-0.182 -7.977,-0.022 -3.311,0.199 -6.557,1.16 -9.874,1.166 -3.785998,0.007 -7.5679978,-1.232 -11.3079978,-0.64 -1.604,0.254 -3.135,0.838 -4.676,1.353 -1.54000003,0.514 -3.132,0.967 -4.757,0.943 -1.844,-0.026 -3.629,-0.665 -5.469,-0.796 -0.92,-0.066 -1.8620002,0 -2.7260002,0.323 -0.863,0.323 -1.644,0.924 -2.068,1.7430008 a 3.66,3.66 0 0 0 -0.386,1.524 c -0.023,0.528 0.05,1.057 0.178,1.57 0.255,1.026 0.724,1.983 1.11,2.967 1.392,3.554 1.692,7.448 2.9370002,11.056 z"
     fill-opacity="0.259"
     filter="url(#F)"
     id="path2968" />
  <path
     transform="matrix(1,0,0,0.9211,40.010585,-138.87703)"
     d="m -54.38,165.474 a 39.396,39.396 0 0 1 8.769,8.051 c 2.313,2.884 4.28,6.154 7.299,8.289 2.132,1.508 4.695,2.358 7.294,2.616 3.051,0.303 6.14,-0.187 9.082,-1.052 2.726,-0.802 5.363,-1.93 7.782,-3.422 4.598,-2.836 8.439,-6.992 13.51,-8.857 1.107,-0.407 2.26,-0.698 3.326,-1.2 1.068,-0.502 2.072,-1.254 2.581,-2.318 0.49,-1.022 0.471,-2.202 0.631,-3.324 0.17,-1.201 0.554,-2.362 0.764,-3.557 0.21,-1.195 0.235,-2.472 -0.282,-3.57 -0.427,-0.908 -1.205,-1.627 -2.1,-2.084 -0.894,-0.457 -1.9,-0.665 -2.904,-0.714 -2.006,-0.098 -3.987,0.415 -5.988,0.598 -2.65,0.241 -5.318,-0.1 -7.977,-0.02 -3.308,0.1 -6.568,0.85 -9.874,1.006 -3.772,0.178 -7.534,-0.418 -11.308,-0.552 -1.632,-0.058 -3.275,-0.028 -4.884,0.253 -1.609,0.281 -3.188,0.822 -4.549,1.726 -1.32,0.877 -2.396,2.067 -3.606,3.09 -0.605,0.512 -1.248,0.986 -1.954,1.345 -0.706,0.36 -1.479,0.605 -2.27,0.643 -0.408,0.02 -0.819,-0.015 -1.222,0.047 a 2.59,2.59 0 0 0 -1.698,1.053 2.59,2.59 0 0 0 -0.423,1.952 z"
     opacity="0.3"
     filter="url(#G)"
     id="path2970" />
  <path
     d="m -5.7574128,-31.622026 c -1.78,0.097 -3.484,0.92 -4.7870002,2.137 -1.304,1.218 -2.222,2.812 -2.787,4.503 -1.13,3.384 -0.875,7.052 -0.618,10.61 0.232,3.222 0.47,6.5059992 1.676,9.5019992 0.604,1.498 1.45,2.91 2.5800002,4.06399992 1.13,1.153 2.553,2.04200008 4.12,2.43400008 1.468,0.368 3.037,0.292 4.482,-0.162 1.44499997,-0.454 2.764,-1.27900008 3.846,-2.33800008 1.58,-1.54499992 2.643,-3.56599992 3.254,-5.68999992 0.61,-2.123 0.784,-4.3499992 0.752,-6.5599992 -0.04,-2.764 -0.4,-5.538 -1.266,-8.164 -0.865,-2.626 -2.245,-5.103 -4.173,-7.086 -0.93300003,-0.96 -1.99700003,-1.805 -3.198,-2.397 -1.201,-0.593 -2.544,-0.926 -3.88,-0.853 z"
     fill="url(#H)"
     id="path2972"
     style="fill:url(#H)" />
  <path
     d="m 25.760585,-31.622026 c -2.78,1.91 -5.11,4.575 -6.25,7.75 -1.436,4.002 -0.886,8.48 0.5,12.5 1.42,4.1169992 3.794,8.0409992 7.38,10.51299912 1.792,1.235 3.867,2.08300008 6.03,2.33800008 2.162,0.256 4.409,-0.095 6.34,-1.10000008 2.353,-1.227 4.148,-3.37399992 5.262,-5.78199992 1.115,-2.408 1.589,-5.0699992 1.738,-7.7189992 0.19,-3.375 -0.14,-6.806 -1.25,-10 -1.205,-3.469 -3.39,-6.67 -6.473,-8.666 -1.541,-0.998 -3.292,-1.684 -5.11,-1.936 -1.82,-0.251 -3.705,-0.063 -5.417,0.602 -0.975,0.38 -1.887,0.908 -2.75,1.5 z"
     fill="url(#I)"
     id="path2974"
     style="fill:url(#I)" />
  <path
     d="m -6.3494128,-2.8300268 a 71.64,71.64 0 0 0 -5.1370002,4.685 c -0.903,0.909 -1.809,1.884 -2.214,3.1 -0.36,1.08 -0.292,2.253 -0.469,3.379 -0.06,0.385 -0.15,0.769 -0.152,1.16 0,0.195 0.02,0.39 0.078,0.5770008 0.057,0.187 0.151,0.364 0.285,0.506 0.222,0.238 0.538,0.366 0.856,0.431 0.318,0.065 0.645,0.072 0.968,0.107 1.456,0.158 2.7980002,0.864 4.0040002,1.695 1.205,0.832 2.314,1.8 3.55,2.586 2.732,1.734 5.994,2.504 9.227,2.628 3.233,0.123 6.4579998,-0.371 9.6299998,-1.005 2.519998,-0.504 5.033998,-1.101 7.425998,-2.044 3.662,-1.443 6.963,-3.667 10.118,-6.0220008 1.433,-1.07 2.846,-2.173 4.132,-3.415 0.437,-0.422 0.86,-0.86 1.328,-1.246 0.468,-0.386 0.988,-0.721 1.566,-0.907 0.88,-0.284 1.835,-0.202 2.748,-0.05 0.687,0.115 1.376,0.27 2.072,0.242 a 3.074,3.074 0 0 0 1.02,-0.204 c 0.324,-0.13 0.622,-0.33 0.844,-0.6 a 2.02,2.02 0 0 0 0.441,-1.272 2.579,2.579 0 0 0 -0.37,-1.30500008 c -0.466,-0.79 -1.27,-1.32299992 -2.106,-1.69499992 -1.146,-0.51 -2.386,-0.761 -3.605,-1.056 a 51.677,51.677 0 0 1 -10.836,-3.954 c -1.716,-0.851 -3.384,-1.795 -5.072,-2.7 -1.735,-0.9299992 -3.504,-1.8239992 -5.389,-2.3949992 -4.212998,-1.277 -8.8179978,-0.859 -12.9769978,0.586 a 27.753,27.753 0 0 0 -11.967,8.1879992 z"
     opacity="0.3"
     filter="url(#J)"
     id="path2976" />
  <path
     d="m 2.6105872,-8.1220268 c 1.768,-1.9859992 2.977,-4.4099992 4.675,-6.4569992 0.849,-1.023 1.828,-1.955 2.9809998,-2.616 1.154,-0.662 2.492,-1.042 3.817,-0.927 1.473998,0.128 2.854998,0.862 3.933998,1.875 1.08,1.012 1.88,2.29 2.519,3.625 0.611,1.278 1.097,2.6399992 1.979,3.7499992 0.94,1.184 2.26,1.992 3.45,2.923 0.597,0.465 1.168,0.97 1.64,1.56 0.47,0.592 0.839,1.277 0.99,2.017 a 4.21,4.21 0 0 1 -0.185,2.26699992 5.078,5.078 0 0 1 -1.26,1.90400008 c -1.105,1.065 -2.613,1.64 -4.133,1.855 -3.04,0.43 -6.115,-0.476 -9.184998,-0.392 -3.106,0.086 -6.1409998,1.184 -9.2469998,1.07 -1.553,-0.056 -3.128,-0.436 -4.40400003,-1.323 a 5.57,5.57 0 0 1 -1.59599997,-1.675 4.597,4.597 0 0 1 -0.673,-2.20600008 c -0.025,-0.73999992 0.148,-1.47999992 0.444,-2.15999992 0.296,-0.68 0.71299997,-1.302 1.18199997,-1.876 0.939,-1.147 2.08700003,-2.106 3.07300003,-3.214 z"
     fill="url(#K)"
     id="path2978"
     style="fill:url(#K)" />
  <path
     d="m 277.96,90.857 c -2.224,1.57 -1.252,3.53 -0.296,5.497 0.957,1.968 -2.104,7.64 -2.136,7.885 -0.032,0.244 6.025,-2.876 7.676,-4.902 1.95,-2.394 6.877,3.238 6.608,2.381 0.002,-1.533 -9.627,-12.431 -11.852,-10.861 z"
     transform="matrix(1.15221,0,0,1.15221,-283.01641,-167.82203)"
     fill="#7c7c7c"
     filter="url(#L)"
     id="path2980" />
  <path
     d="m 32.171585,-23.227026 a 6.443,6.443 0 0 0 -2.95,0.99 7.759,7.759 0 0 0 -2.238,2.179 c -1.187,1.728 -1.709,3.847 -1.793,5.941 -0.063,1.573 0.111,3.165 0.633,4.6499992 0.521,1.485 1.4,2.859 2.612,3.863 a 7.567,7.567 0 0 0 4.425,1.72 7.426,7.426 0 0 0 4.561,-1.306 c 1.053,-0.733 1.902,-1.742 2.507,-2.873 0.604,-1.132 0.969,-2.3839992 1.135,-3.6559992 0.294,-2.246 -0.038,-4.593 -1.077,-6.607 -1.038,-2.014 -2.8,-3.672 -4.927,-4.456 -0.92,-0.339 -1.909,-0.515 -2.888,-0.445 z"
     fill="#020204"
     id="path2982" />
  <path
     d="m 34.666585,-16.372026 c -0.866,0.342 -2.236,0.127 -2.616,0.977 -0.225,0.503 0.093,1.332 0.603,1.54 1.033,0.421 2.632,-0.34 3.05,-1.375 0.18,-0.449 -0.094,-1.16 -0.54,-1.348 -0.166,-0.07 -0.33,0.14 -0.497,0.206 z"
     fill="#141413"
     filter="url(#M)"
     id="path2984" />
  <path
     d="m 38.635585,-14.122026 c 1.161,-1.16 -0.826,-4.24 -2.375,-5.5 -1.122,-0.913 -4.39,-1.868 -4.25,-0.875 0.14,0.994 1.61,2.267 2.595,3.238 1.212,1.195 3.479,3.689 4.03,3.137 z"
     fill="url(#N)"
     filter="url(#O)"
     id="path2986"
     style="fill:url(#N)" />
  <path
     transform="translate(-59.989413,-153.98403)"
     clip-path="url(#P)"
     d="m 75.25,132.487 a 23.711,23.711 0 0 1 8.122,-4.4 c 6.085,-1.881 13,-1.137 18.378,2.275 1.857,1.178 3.512,2.642 5.24,4.004 1.726,1.362 3.56,2.641 5.635,3.371 1.12,0.395 2.318,0.624 3.5,0.5 a 6.509,6.509 0 0 0 2.984,-1.119 7.604,7.604 0 0 0 2.181,-2.337 c 1.112,-1.837 1.47,-4.064 1.278,-6.203 -0.383,-4.277 -2.795,-8.053 -4.818,-11.84 -0.633,-1.187 -1.236,-2.394 -2,-3.5 -2.343,-3.397 -6.073,-5.636 -9.985,-6.949 -3.912,-1.312 -8.046,-1.786 -12.14,-2.302 -1.826,-0.23 -3.673,-0.47 -5.5,-0.25 -2.1,0.253 -4.076,1.101 -6.125,1.625 -0.973,0.249 -1.964,0.425 -2.928,0.704 -0.964,0.28 -1.913,0.67 -2.697,1.296 -1.145,0.916 -1.865,2.291 -2.177,3.724 -0.311,1.432 -0.24,2.924 -0.011,4.372 0.458,2.896 1.54,5.724 1.438,8.654 -0.07,2.012 -0.702,3.988 -0.625,6 0.023,0.59 0.107,1.178 0.25,1.75"
     fill="url(#Q)"
     id="path2988"
     style="fill:url(#Q)" />
  <path
     d="m 35.416585,-39.859026 c -0.477,0.6 -0.908,1.252 -1.25,1.969 a 17.66,17.66 0 0 1 6.031,2.562 c 3.546,2.355 6.237,5.797 8.125,9.625 a 9.964,9.964 0 0 0 1.188,-1.594 c -1.898,-3.987 -4.644,-7.594 -8.313,-10.03 -1.762,-1.171 -3.724,-2.054 -5.78,-2.532 z"
     fill="url(#R)"
     filter="url(#S)"
     id="path2990"
     style="fill:url(#R)" />
  <path
     d="m -5.9584128,-37.903026 c -0.242,-0.005 -0.477,0.017 -0.718,0.029 -0.156,0.007 -0.315,0.013 -0.47,0.028 a 12.94,12.94 0 0 1 4.095,1.081 c 1.738,0.781 3.27299997,1.893 4.624,3.159 2.504,2.345 4.366,5.24 5.625,8.31 a 20.8,20.8 0 0 0 -2.062,-6.66 21.505,21.505 0 0 0 -1.563,-1.65 c -1.35,-1.266 -2.88600003,-2.378 -4.624,-3.159 -1.522,-0.683 -3.214,-1.108 -4.907,-1.138 z"
     fill="url(#T)"
     filter="url(#U)"
     id="path2992"
     style="fill:url(#T)" />
  <path
     d="m -10.051413,-16.873026 c -0.371,2.246 -0.385,4.602 0.3870002,6.744 0.51,1.4139992 1.35,2.6969992 2.372,3.7999992 0.67,0.721 1.429,1.377 2.316,1.802 0.888,0.426 1.916,0.607 2.87,0.367 0.882,-0.221 1.65199997,-0.789 2.21999997,-1.497 0.57,-0.709 0.94800003,-1.553 1.21800003,-2.42 0.798,-2.5609992 0.67,-5.3619992 -0.122,-7.9249992 -0.57700003,-1.867 -1.53200003,-3.668 -3.027,-4.926 -0.713,-0.601 -1.547,-1.072 -2.455,-1.287 -0.907,-0.216 -1.888,-0.165 -2.737,0.22 -0.942,0.429 -1.672,1.244 -2.15,2.162 -0.477,0.918 -0.722,1.94 -0.8910002,2.96 z"
     fill="#020204"
     id="path2994" />
  <path
     d="m -5.3014128,-18.497026 c 0.241,0.634 1.054,0.864 1.5,1.375 0.433,0.497 0.887,1.01 1.125,1.625 0.454,1.176 -0.45,2.92 0.5,3.75 0.297,0.26 0.894,0.267 1.18699997,0 1.145,-1.042 0.89,-3.144 0.438,-4.625 -0.412,-1.344 -1.42799997,-2.616 -2.67999997,-3.255 -0.579,-0.295 -1.45,-0.54 -1.945,-0.12 -0.32,0.271 -0.275,0.859 -0.125,1.25 z"
     fill="url(#V)"
     filter="url(#W)"
     id="path2996"
     style="fill:url(#V)" />
  <g
     transform="translate(-59.989413,-153.98403)"
     id="g3014">
    <path
       d="m 45.752,165.032 c 0.061,0.295 0.172,0.58 0.327,0.84 0.265,0.444 0.654,0.805 1.073,1.11 0.42,0.306 0.873,0.56 1.312,0.836 2.334,1.467 4.235,3.529 5.925,5.707 2.266,2.922 4.272,6.165 7.299,8.289 2.138,1.5 4.696,2.355 7.294,2.616 3.051,0.306 6.14,-0.186 9.082,-1.052 2.726,-0.803 5.363,-1.93 7.782,-3.422 4.598,-2.835 8.44,-6.992 13.51,-8.857 1.107,-0.407 2.26,-0.698 3.326,-1.2 1.068,-0.502 2.072,-1.254 2.581,-2.318 0.49,-1.022 0.471,-2.202 0.631,-3.324 0.17,-1.201 0.554,-2.362 0.764,-3.557 0.21,-1.195 0.235,-2.472 -0.282,-3.57 -0.427,-0.908 -1.205,-1.628 -2.1,-2.084 -0.894,-0.457 -1.9,-0.665 -2.904,-0.714 -2.006,-0.099 -3.987,0.415 -5.988,0.598 -2.65,0.242 -5.318,-0.098 -7.977,-0.02 -3.308,0.1 -6.568,0.845 -9.874,1.006 -3.772,0.183 -7.535,-0.399 -11.308,-0.552 -1.634,-0.066 -3.28,-0.05 -4.892,0.226 -1.612,0.276 -3.195,0.823 -4.54,1.753 -1.312,0.905 -2.357,2.14 -3.56,3.184 -0.603,0.521 -1.25,0.999 -1.967,1.347 -0.717,0.348 -1.508,0.564 -2.304,0.547 -0.41,-0.009 -0.831,-0.077 -1.222,0.047 -0.243,0.078 -0.46,0.227 -0.643,0.406 a 3.767,3.767 0 0 0 -0.478,0.6 10.52,10.52 0 0 0 -0.867,1.558 z"
       fill="url(#X)"
       id="path2998"
       style="fill:url(#X)" />
    <path
       d="m 60.557,169.097 a 6.7,6.7 0 0 0 0.643,4.771 6.7,6.7 0 0 0 3.703,3.077 c 1.977,0.659 4.206,0.336 6.054,-0.628 1.072,-0.56 2.052,-1.346 2.67,-2.385 a 4.51,4.51 0 0 0 0.604,-1.695 3.733,3.733 0 0 0 -0.185,-1.786 3.88,3.88 0 0 0 -1.146,-1.596 5.211,5.211 0 0 0 -1.733,-0.945 c -1.258,-0.416 -2.611,-0.424 -3.934,-0.36 a 38.862,38.862 0 0 0 -5.97,0.752"
       fill="#d9b30d"
       filter="url(#Y)"
       id="path3000" />
    <path
       d="m 54.066,156.68 c -1.339,0.791 -2.628,1.664 -3.897,2.563 -0.657,0.466 -1.334,0.969 -1.68,1.696 -0.246,0.515 -0.303,1.099 -0.31,1.67 -0.008,0.57 0.028,1.143 -0.047,1.709 -0.05,0.386 -0.154,0.766 -0.171,1.155 -0.009,0.195 0.005,0.392 0.056,0.58 a 1.2,1.2 0 0 0 0.275,0.508 c 0.173,0.184 0.408,0.296 0.65,0.37 0.24,0.073 0.49,0.11 0.735,0.168 1.174,0.277 2.197,0.997 3.094,1.804 0.897,0.807 1.703,1.715 2.639,2.477 2.537,2.064 5.89,2.918 9.16,2.972 3.271,0.054 6.505,-0.63 9.696,-1.35 2.506,-0.564 5.015,-1.154 7.426,-2.043 3.702,-1.365 7.14,-3.432 10.118,-6.022 1.35,-1.174 2.617,-2.463 4.132,-3.415 1.341,-0.842 2.843,-1.398 4.207,-2.203 0.121,-0.072 0.243,-0.146 0.352,-0.236 a 1.04,1.04 0 0 0 0.269,-0.325 0.984,0.984 0 0 0 0.039,-0.716 1.902,1.902 0 0 0 -0.36,-0.634 4.423,4.423 0 0 0 -0.57,-0.578 c -1.424,-1.219 -3.356,-1.662 -5.225,-1.81 -1.87,-0.148 -3.76,-0.044 -5.61,-0.353 -1.739,-0.29 -3.393,-0.938 -5.072,-1.477 a 37.34,37.34 0 0 0 -5.389,-1.31 c -4.295,-0.701 -8.717,-0.567 -12.977,0.32 a 37.927,37.927 0 0 0 -11.54,4.48 z"
       fill="#604405"
       filter="url(#Z)"
       id="path3002" />
    <path
       d="m 53.64,152.154 a 23.756,23.756 0 0 0 -5.137,4.685 c -0.84,1.031 -1.603,2.151 -2.027,3.412 -0.333,0.992 -0.446,2.042 -0.656,3.067 -0.079,0.384 -0.171,0.769 -0.17,1.16 0.001,0.197 0.026,0.394 0.087,0.58 0.06,0.186 0.158,0.362 0.294,0.503 0.224,0.234 0.54,0.361 0.858,0.427 0.318,0.065 0.644,0.075 0.966,0.111 1.455,0.166 2.794,0.872 4,1.703 1.206,0.83 2.317,1.795 3.555,2.578 2.734,1.729 5.994,2.498 9.227,2.622 3.232,0.125 6.457,-0.366 9.63,-1 2.52,-0.503 5.033,-1.1 7.425,-2.043 3.662,-1.444 6.963,-3.667 10.118,-6.022 1.433,-1.07 2.846,-2.173 4.132,-3.415 0.437,-0.422 0.86,-0.86 1.328,-1.246 0.468,-0.386 0.988,-0.721 1.566,-0.907 0.88,-0.284 1.835,-0.202 2.748,-0.05 0.687,0.115 1.376,0.27 2.072,0.241 a 3.074,3.074 0 0 0 1.02,-0.203 c 0.324,-0.13 0.622,-0.33 0.844,-0.6 a 2.02,2.02 0 0 0 0.441,-1.272 2.575,2.575 0 0 0 -0.37,-1.305 c -0.466,-0.79 -1.27,-1.323 -2.106,-1.695 -1.146,-0.51 -2.386,-0.761 -3.605,-1.056 a 51.677,51.677 0 0 1 -10.836,-3.954 c -1.716,-0.851 -3.384,-1.795 -5.072,-2.7 -1.735,-0.93 -3.504,-1.824 -5.389,-2.395 -4.213,-1.277 -8.818,-0.859 -12.977,0.586 a 27.753,27.753 0 0 0 -11.967,8.188 z"
       fill="url(#aa)"
       id="path3004"
       style="fill:url(#aa)" />
    <path
       d="m 83.239,153.08 a 1.794,1.794 0 0 0 -0.902,-0.591 2.413,2.413 0 0 0 -1.084,-0.049 c -0.72,0.123 -1.365,0.51 -1.966,0.925 -1.708,1.176 -3.219,2.628 -4.537,4.23 -1.745,2.12 -3.185,4.571 -3.668,7.274 -0.081,0.456 -0.135,0.922 -0.078,1.38 0.057,0.46 0.233,0.916 0.559,1.244 0.286,0.288 0.675,0.464 1.078,0.522 0.402,0.058 0.815,0.002 1.2,-0.128 0.77,-0.26 1.41,-0.8 2.015,-1.342 3.336,-2.985 6.352,-6.567 7.56,-10.878 0.12,-0.433 0.223,-0.876 0.22,-1.325 -0.002,-0.45 -0.119,-0.91 -0.397,-1.262 z"
       fill="#f6da4a"
       filter="url(#ab)"
       id="path3006" />
    <path
       d="m 75.251,146.89 c 0.232,0.742 1.428,0.62 2.12,0.975 0.606,0.313 1.094,0.998 1.776,1.017 0.65,0.019 1.664,-0.225 1.749,-0.87 0.111,-0.854 -1.134,-1.396 -1.936,-1.709 -1.031,-0.402 -2.353,-0.606 -3.32,-0.068 -0.222,0.124 -0.464,0.413 -0.389,0.655 z"
       opacity="0.8"
       fill="url(#ac)"
       filter="url(#ad)"
       id="path3008"
       style="fill:url(#ac)" />
    <path
       d="m 63.827,146.47 c -0.888,-0.289 -2.357,1.277 -1.878,2.079 0.132,0.22 0.535,0.499 0.806,0.35 0.41,-0.225 0.744,-1.03 1.188,-1.345 0.296,-0.21 0.23,-0.972 -0.116,-1.084 z"
       opacity="0.8"
       fill="url(#ae)"
       filter="url(#af)"
       id="path3010"
       style="fill:url(#ae)" />
    <ellipse
       ry="2.3280001"
       rx="2.608"
       cy="158.284"
       cx="243.297"
       style="fill:url(#ag);marker:none"
       transform="matrix(1.09562,0,-0.17018,1.51813,-136.244,-82.117)"
       color="#000000"
       overflow="visible"
       fill="url(#ag)"
       filter="url(#ah)"
       enable-background="accumulate"
       id="ellipse3012" />
  </g>
  <path
     transform="translate(-59.989413,-153.98403)"
     clip-path="url(#ai)"
     d="m 50.392,129.527 c 2.685,-1.6 5.955,-1.97 9.067,-1.675 3.111,0.294 6.125,1.208 9.141,2.029 2.212,0.602 4.452,1.161 6.525,2.137 2.074,0.977 4,2.416 5.142,4.403 0.184,0.32 0.346,0.65 0.54,0.962 0.194,0.313 0.423,0.61 0.716,0.83 0.293,0.222 0.657,0.365 1.024,0.345 0.184,-0.01 0.366,-0.06 0.524,-0.154 a 0.992,0.992 0 0 0 0.378,-0.392 c 0.098,-0.187 0.128,-0.404 0.117,-0.615 a 2.94,2.94 0 0 0 -0.117,-0.622 c -0.755,-2.753 -2.535,-5.088 -3.889,-7.601 -0.812,-1.508 -1.477,-3.093 -2.298,-4.597 -2.818,-5.16 -7.443,-9.215 -12.701,-11.847 -5.258,-2.632 -11.128,-3.896 -16.997,-4.24 -6.802,-0.397 -13.62,0.41 -20.33,1.592 -2.908,0.512 -5.86,1.115 -8.435,2.561 -1.288,0.724 -2.468,1.657 -3.389,2.811 -0.92,1.154 -1.576,2.535 -1.787,3.997 -0.204,1.408 0.008,2.86 0.5,4.196 0.493,1.335 1.26,2.558 2.157,3.662 1.797,2.208 4.101,3.934 6.223,5.831 2.121,1.897 4.09,3.992 6.463,5.563 1.186,0.785 2.472,1.435 3.843,1.816 1.37,0.382 2.83,0.49 4.224,0.204 1.445,-0.296 2.783,-1.005 3.954,-1.902 1.17,-0.897 2.186,-1.98 3.148,-3.098 1.925,-2.236 3.723,-4.686 6.257,-6.196 z"
     fill="url(#aj)"
     id="path3016"
     style="fill:url(#aj)" />
  <path
     d="m 85.111585,71.464974 c 6.085,4.895 9.946,12.286 11.141,20.003 0.933,6.019 0.327,12.194996 -1.03,18.132996 -1.357,5.937 -3.453,11.676 -5.532,17.4 -0.83,2.283 -1.662,4.587 -1.992,6.993 -0.33,2.407 -0.12,4.955 1.04,7.088 1.33,2.446 3.813,4.13 6.482,4.923 2.635,0.783 5.480005,0.766 8.148005,0.102 2.66699,-0.665 5.15699,-1.964 7.32799,-3.65 5.516,-4.283 8.844,-10.948 10.132,-17.812 1.288,-6.863 0.696,-13.95 -0.501,-20.83 -1.634,-9.380996 -4.382,-18.550996 -7.88,-27.407996 -2.573,-6.514 -5.584,-12.92 -9.79199,-18.52 -4.117005,-5.48 -9.307005,-10.093 -13.340005,-15.635 -2.802,-3.85 -5.048,-8.15 -8.406,-11.526 -1.68,-1.689 -3.64,-3.133 -5.86,-3.995 -2.22,-0.862 -4.713,-1.116 -7.005,-0.471 -3.022,0.85 -5.49,3.231 -6.803,6.082 -1.314,2.851 -1.543,6.123 -1.032,9.22 0.659,3.996 2.486,7.703 4.546,11.189 2.327,3.937 5.022,7.727 8.536,10.654 3.667,3.055 8.102,5.069 11.82,8.06 z"
     fill="#020204"
     id="path3018" />
  <path
     d="m 290.781,216.018 c 0.485,0.468 0.981,0.943 1.5,1.375 3.667,3.055 5.619,6.486 9.338,9.477 6.085,4.895 12.259,13.344 13.454,21.06 0.933,6.02 -0.3,9.29 -1.804,16.389 -1.504,7.098 -5.77,17.148 -8.074,23.992 -0.92,2.729 1.861,1.603 1.496,4.48 a 17.72,17.72 0 0 0 -0.035,4.259 c 0.023,-0.271 0.04,-0.553 0.07,-0.822 0.442,-3.923 1.623,-7.695 2.908,-11.395 2.475,-7.123 5.315,-14.101 7.272,-21.408 1.958,-7.307 1.74,-12.565 0.72,-18.844 -1.286,-7.896 -5.798,-15.187 -12.188,-20 -4.519,-3.403 -9.847,-5.585 -14.657,-8.563 z"
     clip-path="url(#ak)"
     transform="matrix(1.01807,0,0,1,-225.24441,-153.98403)"
     fill="#838384"
     filter="url(#al)"
     id="path3020" />
  <path
     transform="matrix(1.1543,0,0,1,46.342585,-153.98403)"
     d="m -61.003,211.593 c 0.88,1.524 -0.547,6.778 19.964,3.415 0,0 -3.602,0.458 -7.153,1.405 -5.52,2.133 -10.33,4.517 -14.04,7.675 -3.675,3.121 -6.367,7.197 -9.74,10.697 0,0 5.462,-11.519 6.824,-14.988 1.361,-3.468 -0.228,-3.31 0.849,-8.413 1.077,-5.104 3.713,-10.007 3.713,-10.007 0,0 -2.152,7.21 -0.417,10.216 z"
     opacity="0.25"
     fill="url(#am)"
     filter="url(#an)"
     id="path3022"
     style="fill:url(#am)" />
  <path
     d="m 52.060585,56.233974 c -4.825,3.361 -7.652,2.963 -13.507,3.62 -5.854,0.658 -21.698,0.42 -21.698,0.42 0,0 2.294,-0.042 7.377,0.905 5.084,0.946 15.454,1.852 21.292,4.074 5.839,2.223 7.969,2.857 11.517,5.1 5.052,3.195 8.759,8.198 13.587,11.698 0,0 0.234,-4.644 -1.715,-8.113 -1.95,-3.468 -7.19,-8.935 -8.732,-14.038 -1.542,-5.104 -2.275,-15.132 -2.275,-15.132 0,0 -1.02,8.105 -5.846,11.466 z"
     opacity="0.42"
     fill="url(#ao)"
     filter="url(#ap)"
     id="path3024"
     style="fill:url(#ao)" />
  <path
     d="m 6.6805872,49.055974 a 60.304,60.304 0 0 1 -0.697,4.344 c -0.14,0.71 -0.295,1.42 -0.56,2.093 -0.263,0.674 -0.643,1.313 -1.18,1.797 -0.471,0.424 -1.045,0.716 -1.621,0.98 a 24.363,24.363 0 0 1 -7.108,2.019 c 0.98,0.072 1.959,0.16 2.935,0.268 0.61599997,0.067 1.23199997,0.142 1.83199997,0.296 0.6,0.153 1.18500003,0.39 1.68400003,0.755 0.548,0.4 0.978,0.948 1.3,1.546 0.64,1.192 0.854,2.563 0.972,3.91 0.152,1.724 0.163,3.46 0.033,5.185 0.116,-1.155 0.358,-2.296 0.72,-3.398 0.653,-1.986 1.704,-3.848 3.12,-5.387 0.562,-0.61 1.18,-1.17 1.859,-1.648 a 10.29,10.29 0 0 1 7.2359978,-1.76 11.239,11.239 0 0 1 -7.194998,-2.235 c -1.0419998,-0.785 -1.9499998,-1.763 -2.5799998,-2.905 a 8.107,8.107 0 0 1 -0.751,-5.86 z"
     opacity="0.2"
     fill="url(#aq)"
     filter="url(#ar)"
     id="path3026"
     style="fill:url(#aq)" />
  <path
     d="m 0.51058717,83.095974 a 88.71,88.71 0 0 0 -2.52599997,14.278 c -0.637,6.811996 -0.483,13.671996 -0.849,20.503996 -0.31,5.798 -0.991,11.656 0.016,17.374 a 29.845,29.845 0 0 0 2.55399997,7.875 c 0.193,-0.95 0.334,-1.911 0.423,-2.876 0.426,-4.636 -0.354,-9.287 -0.618,-13.935 -0.462,-8.148 0.666,-16.29 1.125,-24.438 0.353,-6.254996 0.31,-12.531996 -0.125,-18.780996 z"
     style="marker:none"
     color="#000000"
     overflow="visible"
     opacity="0.11"
     filter="url(#as)"
     enable-background="accumulate"
     id="path3028" />
  <path
     d="m 56.698585,12.877974 c -2.163,1.97 1.013,4.928 2.52,8.404 0.935,2.162 3.526,5.206 6.032,4.718 1.884,-0.367 3.054,-3.08 2.875,-4.991 -0.344,-3.689 -3.456,-4.553 -5.717,-5.82 -1.791,-1.004 -4.192,-3.694 -5.71,-2.31 z"
     fill="#838384"
     filter="url(#at)"
     id="path3030" />
  <path
     transform="matrix(1.02688,0,0,1,37.696585,-153.98403)"
     d="m 86.056,328.132 a 16.61,16.61 0 0 1 -2.05,4.41 c -1.98,3.013 -4.854,5.28 -7.726,7.371 -4.9,3.566 -10.003,6.838 -14.563,10.89 -3.056,2.715 -5.842,5.76 -8.423,8.965 -2.208,2.742 -4.284,5.62 -6.801,8.057 -2.54,2.46 -5.53,4.447 -8.752,5.53 -3.918,1.316 -8.058,1.253 -11.832,0.26 -2.645,-0.697 -5.224,-1.908 -6.862,-4.098 -1.645,-2.198 -2.178,-5.152 -2.368,-8.052 -0.337,-5.128 0.26,-10.37 0.803,-15.575 0.452,-4.326 0.868,-8.655 1.038,-12.972 0.31,-7.852 -0.196,-15.636 -1.231,-23.273 -0.174,-1.28 -0.362,-2.568 -0.257,-3.886 0.105,-1.317 0.535,-2.688 1.436,-3.705 0.832,-0.94 1.993,-1.496 3.15,-1.769 1.159,-0.273 2.33,-0.29 3.494,-0.321 2.74,-0.075 5.496,-0.24 8.195,0.006 1.703,0.155 3.372,0.474 5.073,0.642 2.838,0.28 5.781,0.133 8.627,-0.723 3.064,-0.923 5.987,-2.652 9.1,-3.128 a 12.954,12.954 0 0 1 3.8,0.006 c 1.268,0.182 2.53,0.542 3.503,1.336 0.74,0.604 1.282,1.433 1.706,2.317 0.631,1.316 1.02,2.77 1.241,4.261 0.197,1.32 0.267,2.68 0.598,3.957 0.545,2.102 1.78,3.887 3.267,5.34 1.487,1.453 3.225,2.602 4.961,3.734 1.73,1.128 3.468,2.247 5.315,3.176 0.866,0.437 1.757,0.831 2.586,1.333 0.828,0.503 1.6,1.122 2.15,1.936 0.747,1.105 1.046,2.553 0.822,3.975"
     opacity="0.2"
     fill="url(#au)"
     filter="url(#av)"
     id="path3032"
     style="fill:url(#au)" />
  <path
     transform="translate(-369.98941,-153.98403)"
     clip-path="url(#aw)"
     d="m 516.006,331.876 a 16.933,16.933 0 0 1 -2.816,4.738 c -2.624,3.115 -6.268,5.17 -9.897,7.02 -6.188,3.154 -12.601,5.921 -18.42,9.716 -3.897,2.543 -7.495,5.527 -10.86,8.743 -2.877,2.75 -5.605,5.687 -8.832,8.017 -3.256,2.352 -7.02,4.055 -10.99,4.65 -4.83,0.725 -9.822,-0.212 -14.3,-2.164 -3.137,-1.367 -6.155,-3.323 -7.963,-6.229 -1.814,-2.917 -2.228,-6.488 -2.232,-9.924 -0.008,-6.076 1.118,-12.09 2.178,-18.073 0.881,-4.972 1.72,-9.955 2.26,-14.975 0.984,-9.131 0.977,-18.353 0.32,-27.513 -0.11,-1.535 -0.237,-3.084 -0.008,-4.605 0.23,-1.52 0.855,-3.036 2.021,-4.04 1.077,-0.926 2.521,-1.335 3.94,-1.414 1.418,-0.078 2.834,0.147 4.24,0.352 3.312,0.484 6.65,0.865 9.888,1.717 2.043,0.537 4.034,1.259 6.073,1.81 3.402,0.92 6.966,1.362 10.467,0.952 3.77,-0.44 7.43,-1.856 11.224,-1.764 1.556,0.037 3.101,0.331 4.586,0.8 1.516,0.477 3.01,1.161 4.123,2.295 0.846,0.86 1.436,1.945 1.879,3.068 0.66,1.674 1.015,3.457 1.167,5.25 0.135,1.588 0.113,3.194 0.414,4.76 0.495,2.574 1.848,4.922 3.529,6.934 1.68,2.012 3.69,3.72 5.696,5.408 2,1.68 4.01,3.355 6.167,4.828 1.012,0.692 2.056,1.34 3.017,2.1 0.961,0.762 1.845,1.648 2.446,2.716 a 6.785,6.785 0 0 1 0.683,4.827 z"
     fill="url(#ax)"
     id="path3034"
     style="fill:url(#ax)" />
  <path
     transform="translate(-369.98941,-153.98403)"
     clip-path="url(#ay)"
     d="m 512.891,328.724 a 15.312,15.312 0 0 1 -2.571,4.26 c -2.403,2.814 -5.73,4.655 -9.038,6.311 -5.653,2.83 -11.503,5.318 -16.821,8.736 -3.554,2.283 -6.841,4.965 -9.918,7.86 -2.63,2.472 -5.125,5.115 -8.066,7.207 -2.981,2.12 -6.418,3.647 -10.037,4.18 -4.41,0.651 -8.96,-0.192 -13.058,-1.945 -2.857,-1.222 -5.618,-2.97 -7.272,-5.6 -1.647,-2.617 -2.032,-5.83 -2.04,-8.922 -0.013,-5.464 1.019,-10.87 1.99,-16.248 0.807,-4.469 1.576,-8.948 2.064,-13.463 0.889,-8.208 0.848,-16.498 0.292,-24.735 -0.093,-1.38 -0.2,-2.774 0.012,-4.14 0.212,-1.368 0.778,-2.728 1.826,-3.631 0.983,-0.847 2.303,-1.218 3.599,-1.286 1.295,-0.068 2.587,0.142 3.87,0.33 3.024,0.445 6.073,0.78 9.032,1.544 1.865,0.482 3.683,1.131 5.545,1.628 3.11,0.829 6.362,1.225 9.56,0.856 3.44,-0.398 6.786,-1.672 10.249,-1.587 1.42,0.035 2.83,0.3 4.188,0.72 1.382,0.425 2.75,1.034 3.765,2.062 0.766,0.776 1.296,1.754 1.716,2.76 0.626,1.496 1.033,3.097 1.066,4.719 0.035,1.693 -0.336,3.395 -0.106,5.073 0.186,1.363 0.763,2.648 1.5,3.81 0.738,1.16 1.635,2.21 2.523,3.26 1.717,2.029 3.44,4.097 5.593,5.654 2.452,1.774 5.362,2.812 7.895,4.468 0.755,0.493 1.486,1.052 2.018,1.78 a 4.757,4.757 0 0 1 0.624,4.34 z"
     fill="#cd8907"
     filter="url(#az)"
     id="path3036" />
  <path
     clip-path="url(#aA)"
     transform="matrix(1.14297,0,0,1.2323,-438.98741,-231.11003)"
     d="m 508.793,327.925 a 14.944,14.944 0 0 1 -2.311,3.492 c -2.154,2.428 -5.061,4.099 -8.124,5.172 -5.042,1.767 -10.546,2.005 -15.495,4.016 -3.016,1.227 -5.73,3.074 -8.479,4.82 -2.222,1.41 -4.492,2.768 -6.932,3.755 -2.755,1.116 -5.686,1.74 -8.626,2.179 -1.87,0.279 -3.762,0.484 -5.651,0.387 -1.89,-0.097 -3.784,-0.507 -5.452,-1.4 -1.264,-0.678 -2.4,-1.654 -3.075,-2.92 -0.75,-1.405 -0.88,-3.055 -0.863,-4.648 0.046,-4.246 1.026,-8.446 0.996,-12.692 -0.025,-3.696 -0.815,-7.345 -1.042,-11.035 -0.437,-7.094 1.205,-14.313 -0.24,-21.272 -0.231,-1.115 -0.542,-2.227 -0.527,-3.365 a 4.557,4.557 0 0 1 0.315,-1.667 c 0.217,-0.526 0.563,-1.005 1.025,-1.338 0.389,-0.28 0.85,-0.45 1.323,-0.526 a 4.736,4.736 0 0 1 1.432,0.007 c 0.948,0.136 1.852,0.482 2.776,0.737 2.641,0.73 5.432,0.714 8.117,1.265 1.685,0.345 3.317,0.911 4.984,1.334 2.8,0.71 5.72,1.013 8.592,0.701 3.089,-0.335 6.108,-1.375 9.213,-1.3 1.273,0.03 2.538,0.25 3.765,0.59 1.228,0.339 2.456,0.819 3.384,1.69 0.67,0.629 1.152,1.431 1.543,2.262 0.57,1.212 0.967,2.528 0.957,3.868 -0.005,0.696 -0.119,1.387 -0.186,2.08 -0.068,0.694 -0.088,1.404 0.091,2.078 0.18,0.676 0.554,1.287 0.983,1.84 0.428,0.554 0.915,1.06 1.358,1.602 1.242,1.517 2.13,3.285 3.097,4.99 0.968,1.706 2.053,3.393 3.58,4.622 2.08,1.672 4.779,2.34 7.097,3.661 0.679,0.387 1.337,0.841 1.814,1.46 0.382,0.495 0.638,1.088 0.735,1.706 0.098,0.618 0.037,1.26 -0.174,1.85 z"
     fill="#f5c021"
     filter="url(#aB)"
     id="path3038" />
  <path
     d="m 67.320585,136.66597 c 3.275,-0.887 6.065,1.597 8.442,3.472 1.535,1.31 3.753,0.98 5.636,1.042 3.12,-0.113 6.226,0.523 9.347,0.136 6.145,-0.52 12.169005,-2.03 18.342995,-2.29 2.95,-0.186 6.26,-0.357 8.808,1.365 1.033,0.716 2.547,3.742 3.566,2.605 -0.42,-3.178 -2.777,-6.256 -5.939,-7.102 -2.475,-0.39 -4.99,0.291 -7.49,0.071 -7.42199,-0.177 -14.792995,-1.555 -22.232995,-1.16 -5.177,0.045 -10.347,-0.195 -15.516,-0.397 -2.03,-0.415 -2.746,1.39 -3.849,2.081"
     fill="url(#aC)"
     filter="url(#aD)"
     id="path3040"
     style="fill:url(#aC)" />
  <path
     transform="matrix(-0.09596,-0.957,-0.77476,0.11853,278.91259,397.62297)"
     d="m 361.75,209.343 c 0.002,-1.533 -7.565,-10.056 -9.79,-8.486 -2.224,1.57 -0.491,3.784 -0.296,5.497 0.196,1.714 -0.945,6.61 0.239,7.26 1.184,0.65 3.366,-2.52 5.301,-4.277 1.558,-1.415 4.544,1.54 4.546,0.006 z"
     opacity="0.75"
     fill="#7c7c7c"
     filter="url(#aE)"
     id="path3042" />
  <path
     d="m 351.96,200.857 c -1.451,0.388 -1.23,3.994 -0.296,5.497 0.79,1.27 3.073,2.272 3.759,1.005 1.114,-2.055 -1.472,-7.036 -3.463,-6.502 z"
     transform="matrix(-0.06992,0.957,-0.5645,-0.11853,116.57858,-276.00103)"
     opacity="0.25"
     fill="#7c7c7c"
     filter="url(#aF)"
     id="path3044" />
  <path
     d="m 111.49458,141.65597 c -0.563,-1.102 -1.587,-1.926 -2.73,-2.402 -1.14,-0.477 -2.396,-0.63 -3.633,-0.62 -2.47499,0.02 -4.93499,0.664 -7.399995,0.45 -2.083,-0.18 -4.059,-0.962 -6.09,-1.457 -2.097,-0.51 -4.322,-0.71 -6.405,-0.143 -2.226,0.606 -4.19,2.094 -5.419,4.046 -1.084,1.72 -1.599,3.752 -1.761,5.78 -0.162,2.027 0.013,4.066 0.218,6.09 0.149,1.463 0.314,2.93 0.668,4.358 0.354,1.428 0.904,2.823 1.766,4.015 1.24,1.716 3.083,2.94 5.07,3.675 a 14.086,14.086 0 0 0 10.13,-0.177 c 5.660005,-2.457 10.449995,-6.864 13.369995,-12.299 a 26.203,26.203 0 0 0 2.382,-6.165 c 0.208,-0.853 0.372,-1.722 0.38,-2.6 0.007,-0.878 -0.147,-1.769 -0.546,-2.55 z"
     opacity="0.35"
     fill="url(#aG)"
     filter="url(#aH)"
     id="path3046"
     style="fill:url(#aG)" />
  <path
     transform="matrix(1,0,0,0.72293,40.010585,-73.226026)"
     d="m 71.484,295.64 c -0.563,-1.102 -1.587,-1.926 -2.73,-2.402 -1.14,-0.477 -2.396,-0.63 -3.633,-0.62 -2.475,0.02 -4.935,0.664 -7.4,0.45 -2.083,-0.18 -4.059,-0.962 -6.09,-1.457 -2.097,-0.51 -4.322,-0.71 -6.405,-0.143 -2.226,0.606 -4.19,2.094 -5.419,4.046 -1.084,1.72 -1.599,3.752 -1.761,5.78 -0.162,2.027 0.013,4.066 0.218,6.09 0.149,1.463 0.314,2.93 0.668,4.358 0.354,1.428 0.904,2.823 1.766,4.015 1.24,1.716 3.083,2.94 5.07,3.675 a 14.086,14.086 0 0 0 10.13,-0.177 c 5.66,-2.457 10.45,-6.864 13.37,-12.299 a 26.203,26.203 0 0 0 2.382,-6.165 c 0.208,-0.853 0.372,-1.722 0.38,-2.6 0.007,-0.878 -0.147,-1.769 -0.546,-2.55 z"
     opacity="0.35"
     fill="url(#aI)"
     filter="url(#aJ)"
     id="path3048"
     style="fill:url(#aI)" />
  <path
     d="m 116.19858,131.34297 c -0.406,-1.103 -1.119,-2.081 -1.991,-2.87 -0.873,-0.788 -1.9,-1.392 -2.983,-1.851 -2.165,-0.918 -4.52,-1.261 -6.83199,-1.696 -2.179,-0.409 -4.341,-0.906 -6.527005,-1.277 -2.272,-0.385 -4.618,-0.632 -6.866,-0.125 -1.966,0.443 -3.784,1.459 -5.271,2.818 -1.488,1.36 -2.65,3.057 -3.485,4.89 -1.473,3.23 -1.935,6.866 -1.654,10.404 0.208,2.633 0.875,5.346 2.608,7.339 1.401,1.61 3.388,2.615 5.434,3.22 a 18.392,18.392 0 0 0 10.86,-0.155 28.586,28.586 0 0 0 14.330995,-10.779 c 1.139,-1.65 2.112,-3.448 2.553,-5.403 0.336,-1.49 0.349,-3.081 -0.178,-4.515 z"
     fill="#020204"
     id="path3050" />
  <path
     transform="translate(-269.98941,-153.98403)"
     clip-path="url(#aK)"
     d="m 362.219,276.456 c -0.55,0.03 -1.082,0.09 -1.625,0.187 -3.47,0.617 -6.647,2.809 -8.438,5.844 a 12.379,12.379 0 0 0 -1.656,7.156 c 0.073,-1.741 0.53,-3.446 1.375,-4.968 1.434,-2.582 4.032,-4.53 6.938,-5.063 1.79,-0.328 3.631,-0.13 5.437,0.094 1.733,0.215 3.481,0.443 5.188,0.812 2.64,0.572 5.254,1.452 7.468,3 0.517,0.362 1,0.769 1.406,1.25 0.407,0.482 0.722,1.038 0.844,1.657 0.178,0.904 -0.08,1.853 -0.531,2.656 -0.452,0.803 -1.065,1.507 -1.719,2.156 a 39.497,39.497 0 0 1 -1.656,1.531 c 2.559,-0.495 5.152,-1.197 7.281,-2.687 0.9,-0.63 1.715,-1.385 2.25,-2.344 0.535,-0.959 0.763,-2.121 0.5,-3.187 -0.177,-0.72 -0.571,-1.383 -1.062,-1.938 -0.491,-0.555 -1.08,-1.012 -1.688,-1.437 a 20.015,20.015 0 0 0 -9.062,-3.47 110.837,110.837 0 0 0 -6.281,-0.968 c -1.644,-0.206 -3.321,-0.373 -4.97,-0.281 z"
     fill="url(#aL)"
     filter="url(#aM)"
     id="path3052"
     style="fill:url(#aL)" />
  <path
     transform="translate(-269.98941,-153.98403)"
     clip-path="url(#aN)"
     d="m 362.219,276.456 c -0.55,0.03 -1.082,0.09 -1.625,0.187 -3.47,0.617 -6.647,2.809 -8.438,5.844 a 12.379,12.379 0 0 0 -1.656,7.156 c 0.073,-1.741 0.53,-3.446 1.375,-4.968 1.434,-2.582 4.032,-4.53 6.938,-5.063 1.79,-0.328 3.631,-0.13 5.437,0.094 1.733,0.215 3.481,0.443 5.188,0.812 2.64,0.572 5.254,1.452 7.468,3 0.517,0.362 1,0.769 1.406,1.25 0.407,0.482 0.722,1.038 0.844,1.657 0.178,0.904 -0.08,1.853 -0.531,2.656 -0.452,0.803 -1.065,1.507 -1.719,2.156 a 39.497,39.497 0 0 1 -1.656,1.531 c 2.559,-0.495 5.152,-1.197 7.281,-2.687 0.9,-0.63 1.715,-1.385 2.25,-2.344 0.535,-0.959 0.763,-2.121 0.5,-3.187 -0.177,-0.72 -0.571,-1.383 -1.062,-1.938 -0.491,-0.555 -1.08,-1.012 -1.688,-1.437 a 20.015,20.015 0 0 0 -9.062,-3.47 110.837,110.837 0 0 0 -6.281,-0.968 c -1.644,-0.206 -3.321,-0.373 -4.97,-0.281 z"
     fill="url(#aO)"
     filter="url(#aP)"
     id="path3054"
     style="fill:url(#aO)" />
  <path
     d="m -21.491413,30.439974 a 4291.393,4291.393 0 0 0 -8.334,10.435 c -2.857,3.588 -5.708,7.18 -8.588,10.751 -3.532,4.381 -7.149,8.794 -9.449,13.93 -1.976,4.414 -2.91,9.208 -4.265,13.85 -1.538,5.272 -3.626,10.37 -5.97,15.336 -2.165,4.585 -4.55,9.062996 -6.94,13.535996 -1.738,3.254 -3.505,6.58 -4.107,10.22 -0.476,2.877 -0.199,5.845 0.534,8.667 0.732,2.822 1.91,5.51 3.237,8.106 5.668,11.075 14.17,20.621 24.242,27.924 a 85.153,85.153 0 0 0 14.603,8.526 c 2.782,1.27 5.713,2.405 8.771,2.458 1.53,0.026 3.074,-0.226 4.475,-0.84 1.4,-0.616 2.65,-1.605 3.4820002,-2.888 1.023,-1.578 1.37,-3.538 1.165,-5.407 -0.205,-1.87 -0.935,-3.653 -1.9130002,-5.259 -2.39,-3.923 -6.166,-6.76 -9.797,-9.573 -7.84,-6.074 -15.424,-12.48 -22.682,-19.24 -2.049,-1.909 -4.098,-3.878 -5.53,-6.285 -1.394,-2.343 -2.148,-5.013 -2.658,-7.692 -1.4,-7.349 -1.04,-15.083 1.46,-22.133996 0.978,-2.758 2.27,-5.392 3.518,-8.04 2.161,-4.588 4.207,-9.265 7.05,-13.466 3.537,-5.23 8.267,-9.66 11.15,-15.278 2.435,-4.742 3.42,-10.073 4.362,-15.319 0.737,-4.104 1.465,-8.21 2.184,-12.318 z"
     fill="#020204"
     id="path3056" />
  <path
     transform="translate(-269.98941,-153.98403)"
     clip-path="url(#aQ)"
     d="m 232.33,224.27 a 33,33 0 0 0 -5.953,7.318 c -2.668,4.458 -4.239,9.468 -6.178,14.289 -1.444,3.588 -3.125,7.193 -3.327,11.056 -0.103,1.984 0.191,3.966 0.257,5.951 0.066,1.986 -0.117,4.052 -1.09,5.784 a 7.006,7.006 0 0 1 -3.733,3.144 11.07,11.07 0 0 1 5.336,3.866 c 1.114,1.499 1.827,3.253 2.796,4.85 0.787,1.299 1.753,2.502 2.943,3.445 1.19,0.944 2.611,1.62 4.117,1.813 a 7.258,7.258 0 0 0 5.765,-1.842 135.281,135.281 0 0 1 5.15,-53.8 c 0.336,-1.095 0.688,-2.198 0.77,-3.34 0.084,-1.143 -0.128,-2.349 -0.823,-3.259 a 3.544,3.544 0 0 0 -1.43,-1.108 3.544,3.544 0 0 0 -1.792,-0.252 3.543,3.543 0 0 0 -1.68,0.67 c -0.49,0.363 -0.883,0.856 -1.127,1.415 z"
     opacity="0.95"
     fill="#7c7c7c"
     filter="url(#aR)"
     id="path3058" />
  <g
     clip-path="url(#aS)"
     transform="translate(-199.98941,-153.98403)"
     id="g3068">
    <path
       d="m 137.577,281.02 c 1.6,-0.664 3.398,-0.785 5.1,-0.47 1.703,0.313 3.312,1.049 4.744,2.022 2.864,1.946 4.988,4.778 7.023,7.58 4.672,6.433 9.169,13.002 13.245,19.829 3.306,5.537 6.343,11.257 10.164,16.453 2.494,3.392 5.306,6.54 7.813,9.922 2.506,3.383 4.728,7.056 5.84,11.117 1.443,5.276 0.884,11.092 -1.627,15.953 -1.767,3.419 -4.477,6.352 -7.773,8.339 -3.296,1.986 -7.17,3.014 -11.016,2.87 -6.114,-0.23 -11.7,-3.285 -17.384,-5.55 -11.58,-4.612 -24.16,-6.059 -36.097,-9.651 -3.668,-1.104 -7.275,-2.41 -10.97,-3.426 -1.64,-0.452 -3.308,-0.849 -4.858,-1.552 -1.55,-0.703 -3,-1.749 -3.862,-3.217 -0.666,-1.134 -0.948,-2.47 -0.93,-3.785 0.018,-1.316 0.326,-2.615 0.774,-3.852 0.896,-2.474 2.343,-4.713 3.32,-7.157 1.595,-3.989 1.882,-8.388 1.666,-12.679 -0.215,-4.291 -0.91,-8.545 -1.204,-12.831 -0.131,-1.914 -0.18,-3.853 0.185,-5.736 0.365,-1.884 1.175,-3.725 2.557,-5.056 1.274,-1.226 2.965,-1.955 4.697,-2.316 1.731,-0.361 3.515,-0.378 5.284,-0.338 1.768,0.04 3.54,0.135 5.303,-0.01 1.763,-0.145 3.534,-0.54 5.07,-1.419 1.46,-0.834 2.653,-2.074 3.643,-3.434 0.99,-1.36 1.789,-2.846 2.609,-4.314 0.82,-1.468 1.668,-2.931 2.741,-4.226 1.074,-1.294 2.39,-2.423 3.943,-3.067 z"
       fill="url(#aT)"
       id="path3060"
       style="fill:url(#aT)" />
    <path
       d="m 140.11,283.779 c 1.455,-0.586 3.094,-0.65 4.622,-0.304 1.529,0.346 2.95,1.09 4.189,2.047 2.477,1.914 4.2,4.614 5.854,7.268 3.97,6.433 7.851,12.934 11.516,19.568 2.777,4.993 5.425,10.092 8.838,14.678 2.263,3.042 4.847,5.832 7.157,8.837 2.31,3.006 4.372,6.282 5.393,9.934 1.316,4.706 0.783,9.91 -1.495,14.233 a 18.98,18.98 0 0 1 -7.186,7.512 18.499,18.499 0 0 1 -10.087,2.488 c -5.598,-0.258 -10.711,-3.053 -15.98,-4.95 -10.104,-3.666 -21.054,-4.158 -31.417,-7.02 -3.715,-1.009 -7.337,-2.353 -11.07,-3.295 -1.651,-0.416 -3.332,-0.757 -4.902,-1.419 -1.569,-0.662 -3.046,-1.689 -3.897,-3.165 -0.633,-1.097 -0.886,-2.388 -0.847,-3.654 0.04,-1.266 0.36,-2.51 0.81,-3.694 0.902,-2.367 2.32,-4.51 3.23,-6.874 1.378,-3.575 1.55,-7.505 1.293,-11.327 -0.256,-3.822 -0.92,-7.61 -1.153,-11.433 -0.104,-1.71 -0.12,-3.44 0.226,-5.116 0.346,-1.677 1.076,-3.31 2.295,-4.512 1.321,-1.309 3.141,-2.024 4.978,-2.304 1.836,-0.28 3.706,-0.158 5.554,0.007 1.85,0.165 3.705,0.373 5.561,0.261 1.857,-0.11 3.736,-0.563 5.27,-1.607 1.397,-0.944 2.445,-2.324 3.244,-3.798 0.798,-1.474 1.367,-3.055 1.976,-4.616 0.609,-1.562 1.267,-3.122 2.222,-4.51 0.955,-1.388 2.236,-2.605 3.806,-3.235"
       fill="#d99a03"
       filter="url(#aU)"
       id="path3062" />
    <path
       transform="matrix(1,0,0,0.98205,0,3.959)"
       d="m 138.753,281.235 c 1.41,-0.712 3.07,-0.858 4.617,-0.536 1.545,0.32 2.978,1.09 4.195,2.095 2.435,2.01 3.98,4.875 5.42,7.686 3.305,6.454 6.383,13.05 10.338,19.128 2.868,4.41 6.18,8.517 9.081,12.905 3.936,5.95 7.136,12.495 8.457,19.507 0.888,4.715 0.859,9.81 -1.373,14.057 -1.469,2.796 -3.85,5.09 -6.663,6.526 -2.814,1.435 -6.043,2.017 -9.19,1.734 -4.953,-0.445 -9.453,-2.925 -14.117,-4.655 -8.274,-3.069 -17.218,-3.803 -25.734,-6.118 -3.592,-0.977 -7.11,-2.236 -10.75,-3.01 -1.607,-0.342 -3.244,-0.591 -4.778,-1.18 -1.533,-0.588 -2.986,-1.565 -3.77,-3.008 -0.55,-1.016 -0.736,-2.205 -0.654,-3.358 0.083,-1.153 0.421,-2.275 0.865,-3.342 0.888,-2.134 2.2,-4.09 2.89,-6.296 1.014,-3.242 0.597,-6.757 -0.163,-10.067 -0.76,-3.31 -1.857,-6.562 -2.195,-9.941 -0.15,-1.506 -0.147,-3.04 0.192,-4.515 0.338,-1.475 1.027,-2.892 2.108,-3.95 1.393,-1.362 3.344,-2.04 5.283,-2.229 1.94,-0.19 3.893,0.069 5.82,0.351 1.929,0.283 3.869,0.59 5.815,0.5 1.947,-0.09 3.929,-0.61 5.454,-1.824 1.507,-1.2 2.455,-2.987 2.999,-4.836 0.544,-1.849 0.72,-3.782 0.943,-5.696 0.222,-1.914 0.5,-3.846 1.23,-5.63 0.729,-1.784 1.96,-3.428 3.68,-4.298 z"
       fill="#f5bd0c"
       filter="url(#aV)"
       id="path3064" />
    <path
       d="m 156.407,295.97 c 2.606,4.713 4.196,10.121 6.781,14.874 2.379,4.373 5.085,8.874 7.5,12.907 1.076,1.795 3.584,4.554 6.12,8.837 2.297,3.88 4.618,9.297 5.916,11.116 -0.746,-2.129 -2.28,-7.847 -4.109,-11.923 -1.71,-3.809 -3.7,-5.982 -4.927,-8.03 -2.415,-4.033 -5.016,-7.657 -7.5,-11.5 -3.425,-5.302 -6.035,-11.236 -9.78,-16.282 z"
       fill="url(#aW)"
       filter="url(#aX)"
       id="path3066"
       style="fill:url(#aW)" />
  </g>
</svg>
