<?xml version="1.0" encoding="UTF-8"?>
<svg class="icon" width="200" height="200" p-id="9527" t="1622014556308" version="1.1" viewBox="0 0 1024 1024" xmlns="http://www.w3.org/2000/svg" xmlns:cc="http://creativecommons.org/ns#" xmlns:dc="http://purl.org/dc/elements/1.1/" xmlns:rdf="http://www.w3.org/1999/02/22-rdf-syntax-ns#"><metadata><rdf:RDF><cc:Work rdf:about=""><dc:format>image/svg+xml</dc:format><dc:type rdf:resource="http://purl.org/dc/dcmitype/StillImage"/><dc:title/></cc:Work></rdf:RDF></metadata><defs><style type="text/css"/></defs><g transform="matrix(1.1905 0 0 1.1905 -97.523 -97.523)"><path d="m687.62 478.51h-106.75v-105.68h-66.048v105.68h-106.76v65.408h106.74v105.68h66.048v-105.68h106.76z" fill="#f79c42" p-id="9528"/><path d="m792.95 81.92h-489.53a107.76 107.76 0 0 0-108.17 107.1v47.969h-72.371v65.536h72.371v93.527h-72.371v65.536h72.371v93.522h-72.371v65.536h72.371v93.517h-72.371v65.536h72.371v55.26a107.76 107.76 0 0 0 108.17 107.12h489.53a107.76 107.76 0 0 0 108.17-107.1v-645.96a107.76 107.76 0 0 0-108.17-107.1zm41.984 753.06a41.805 41.805 0 0 1-41.984 41.554h-489.53a41.805 41.805 0 0 1-41.984-41.554v-645.96a41.805 41.805 0 0 1 41.984-41.549h489.53a41.805 41.805 0 0 1 41.984 41.549z" fill="#5288f5" p-id="9529"/></g></svg>
