<?xml version="1.0" encoding="UTF-8"?>
<svg width="448.49" height="533.33" version="1.1" viewBox="-18.15 -35.972 58.789 143.89" xmlns="http://www.w3.org/2000/svg"><path d="m11.248 106.26c-12.533 0-24.038-4.195-31.445-10.46-3.762 1.124-8.574 2.932-11.61 5.175-2.6 1.918-2.275 3.874-1.807 4.663 2.056 3.47 35.273 2.216 44.862 1.136zm0 0c12.535 0 24.039-4.195 31.447-10.46 3.76 1.124 8.573 2.932 11.61 5.175 2.598 1.918 2.274 3.874 1.805 4.663-2.056 3.47-35.272 2.216-44.862 1.136z" fill="#faab07"/><path d="m11.321 31.146c20.698-0.14 37.286-4.147 42.907-5.683 1.34-0.367 2.056-1.024 2.056-1.024 5e-3 -0.189 0.085-3.37 0.085-5.01 0-27.634-13.044-55.401-45.124-55.402-32.08 1e-3 -45.125 27.769-45.125 55.401 0 1.642 0.08 4.822 0.086 5.01 0 0 0.583 0.615 1.65 0.913 5.19 1.444 22.09 5.65 43.312 5.795zm56.245 23.02c-1.283-4.129-3.034-8.944-4.808-13.568 0 0-1.02-0.126-1.537 0.023-15.913 4.623-35.202 7.57-49.9 7.392h-0.153c-14.616 0.175-33.774-2.737-49.634-7.315-0.606-0.175-1.802-0.1-1.802-0.1-1.774 4.624-3.525 9.44-4.808 13.568-6.119 19.69-4.136 27.838-2.627 28.02 3.239 0.392 12.606-14.821 12.606-14.821 0 15.459 13.957 39.195 45.918 39.413h0.848c31.96-0.218 45.917-23.954 45.917-39.413 0 0 9.368 15.213 12.607 14.822 1.508-0.183 3.491-8.332-2.627-28.021"/><path d="m-0.16989 4.8515c-4.352 0.197-8.07-4.76-8.304-11.063-0.236-6.305 3.098-11.576 7.45-11.773 4.347-0.195 8.064 4.76 8.3 11.065 0.238 6.306-3.097 11.577-7.446 11.771m31.133-11.063c-0.233 6.302-3.951 11.26-8.303 11.063-4.35-0.195-7.684-5.465-7.446-11.77 0.236-6.305 3.952-11.26 8.3-11.066 4.352 0.197 7.686 5.468 7.449 11.773" fill="#fff"/><path d="m38.697 13.752c-1.162-2.575-12.875-5.445-27.374-5.445h-0.156c-14.5 0-26.212 2.87-27.375 5.446a0.863 0.863 0 0 0-0.085 0.367 0.88 0.88 0 0 0 0.16 0.496c0.98 1.427 13.985 8.487 27.3 8.487h0.156c13.314 0 26.319-7.058 27.299-8.487a0.873 0.873 0 0 0 0.16-0.498 0.856 0.856 0 0 0-0.085-0.365" fill="#faab07"/><path d="m5.1791-6.1185c0.199 2.49-1.167 4.702-3.046 4.943-1.883 0.242-3.568-1.58-3.768-4.07-0.197-2.492 1.167-4.704 3.043-4.944 1.886-0.244 3.574 1.58 3.771 4.07m11.956 0.833c0.385-0.689 3.004-4.312 8.427-2.993 1.425 0.347 2.084 0.857 2.223 1.057 0.205 0.296 0.262 0.718 0.053 1.286-0.412 1.126-1.263 1.095-1.734 0.875-0.305-0.142-4.082-2.66-7.562 1.097-0.24 0.257-0.668 0.346-1.073 0.04-0.407-0.308-0.574-0.93-0.334-1.362"/><path d="m11.321 47.108h-0.153c-9.996 0.12-22.116-1.204-33.854-3.518-1.004 5.818-1.61 13.132-1.09 21.853 1.316 22.043 14.407 35.9 34.614 36.1h0.82c20.208-0.2 33.298-14.057 34.616-36.1 0.52-8.723-0.087-16.035-1.092-21.854-11.739 2.315-23.862 3.64-33.86 3.518" fill="#fff"/><path d="m-17.153 45.262v21.693s9.937 2.004 19.893 0.616v-20.009c-6.307-0.357-13.109-1.152-19.893-2.3" fill="#eb1923"/><path d="m56.284 24.44s-19.33 6.102-44.963 6.275h-0.153c-25.591-0.172-44.896-6.255-44.962-6.275l-6.474 16.158c16.193 4.882 36.261 8.028 51.436 7.845h0.153c15.175 0.183 35.242-2.963 51.437-7.845z" fill="#eb1923"/></svg>
