<?xml version="1.0" encoding="UTF-8"?>
<svg class="icon" width="200" height="200" p-id="10118" t="1622014605984" version="1.1" viewBox="0 0 1024 1024" xmlns="http://www.w3.org/2000/svg" xmlns:cc="http://creativecommons.org/ns#" xmlns:dc="http://purl.org/dc/elements/1.1/" xmlns:rdf="http://www.w3.org/1999/02/22-rdf-syntax-ns#"><metadata><rdf:RDF><cc:Work rdf:about=""><dc:format>image/svg+xml</dc:format><dc:type rdf:resource="http://purl.org/dc/dcmitype/StillImage"/><dc:title/></cc:Work></rdf:RDF></metadata><defs><style type="text/css"/></defs><g transform="matrix(1.1538 0 0 1.1538 -78.769 -98.462)"><path d="m136.53 392.53h750.93v68.267h-750.93z" fill="#d5ac86" p-id="10119"/><g fill="#2b2b2b"><path d="m170.67 256.03v614.33c0 18.859 15.309 34.167 34.167 34.167h614.33a34.185 34.185 0 0 0 34.167-34.167v-614.33a34.185 34.185 0 0 0-34.167-34.167h-614.33a34.185 34.185 0 0 0-34.167 34.167zm-68.267 0a102.45 102.45 0 0 1 102.43-102.43h614.33a102.45 102.45 0 0 1 102.43 102.43v614.33a102.45 102.45 0 0 1-102.43 102.43h-614.33a102.45 102.45 0 0 1-102.43-102.43z" p-id="10120"/><path d="m341.33 290.13m0-34.133v-136.53q0-34.133 34.133-34.133 34.133 0 34.133 34.133v136.53q0 34.133-34.133 34.133-34.133 0-34.133-34.133z" p-id="10121"/><path d="m614.4 290.13m0-34.133v-136.53q0-34.133 34.133-34.133 34.133 0 34.133 34.133v136.53q0 34.133-34.133 34.133-34.133 0-34.133-34.133z" p-id="10122"/></g></g></svg>
