<?xml version="1.0" encoding="UTF-8"?>
<svg width="656.24" height="533.33" version="1.1" viewBox="-44.701 -60.548 211.86 242.19" xmlns="http://www.w3.org/2000/svg"><path d="m5.9459 181.64c112.46 0 173.96-93.168 173.96-173.96 0-2.646-0.054-5.28-0.173-7.903a124.34 124.34 0 0 0 30.498-31.66c-10.955 4.87-22.744 8.148-35.11 9.626 12.622-7.57 22.313-19.543 26.885-33.817a122.62 122.62 0 0 1-38.824 14.841c-11.157-11.884-27.04-19.317-44.629-19.317-33.764 0-61.144 27.381-61.144 61.132 0 4.798 0.537 9.465 1.586 13.941-50.815-2.557-95.874-26.886-126.03-63.88a60.977 60.977 0 0 0-8.279 30.73c0 21.212 10.794 39.938 27.208 50.893a60.685 60.685 0 0 1-27.69-7.647c-9e-3 0.257-9e-3 0.507-9e-3 0.781 0 29.61 21.075 54.332 49.051 59.934a61.218 61.218 0 0 1-16.122 2.152 60.84 60.84 0 0 1-11.491-1.103c7.784 24.293 30.355 41.971 57.115 42.465-20.926 16.402-47.287 26.171-75.937 26.171-4.929 0-9.798-0.28-14.584-0.846 27.059 17.344 59.189 27.464 93.722 27.464" fill="#1da1f2"/></svg>
