<?xml version="1.0" encoding="UTF-8"?>
<svg width="654.99" height="533.33" version="1.1" viewBox="-7.5828 -10.291 35.87 41.163" xmlns="http://www.w3.org/2000/svg"><defs><linearGradient id="a" x1="17.242" x2="17.242" y1="32.431" y2=".1504" gradientTransform="matrix(1.0623 0 0 .94137 14.924 10.291)" gradientUnits="userSpaceOnUse"><stop stop-color="#78D431" offset="0"/><stop stop-color="#9EEE69" offset="1"/></linearGradient><linearGradient id="b" x1="33.473" x2="33.473" y1="41.634" y2="14.697" gradientTransform="matrix(1.0567 0 0 .94637 14.924 10.291)" gradientUnits="userSpaceOnUse"><stop stop-color="#E4E6E6" offset="0"/><stop stop-color="#F5F5FF" offset="1"/></linearGradient></defs><g transform="translate(-14.924 -10.291)"><path d="m0 15.306c0 4.5919 2.4846 8.787 6.3245 11.565 0.3388 0.2267 0.5082 0.5669 0.5082 1.0204 0 0.1134-0.0565 0.2835-0.0565 0.3968-0.2823 1.1338-0.7906 3.0046-0.847 3.0613-0.0565 0.17-0.113 0.2834-0.113 0.4535 0 0.3402 0.2824 0.6236 0.6212 0.6236 0.113 0 0.2259-0.0567 0.3388-0.1134l4.0093-2.3243c0.2823-0.17 0.6211-0.2834 0.96-0.2834 0.1693 0 0.3952 0 0.5646 0.0567 1.8635 0.5669 3.8963 0.8503 5.9857 0.8503 10.108 0 18.296-6.8595 18.296-15.306s-8.188-15.306-18.296-15.306c-10.108 0-18.296 6.8595-18.296 15.306" fill="url(#a)"/><path d="m35.342 39.62c1.7463 0 3.4363-0.2284 4.9572-0.6854 0.1127-0.057 0.2817-0.057 0.4507-0.057 0.2817 0 0.5633 0.1142 0.7887 0.2284l3.3236 1.942c0.1126 0.057 0.169 0.1142 0.2816 0.1142 0.2817 0 0.507-0.2285 0.507-0.514 0-0.1143-0.0563-0.2285-0.0563-0.3999 0-0.0571-0.4507-1.5992-0.676-2.5702-0.0563-0.1142-0.0563-0.2285-0.0563-0.3427 0-0.3427 0.169-0.6283 0.4506-0.8568 3.211-2.3417 5.239-5.8258 5.239-9.7097 0-7.0824-6.8163-12.851-15.21-12.851s-15.21 5.7115-15.21 12.851c0 7.0824 6.8162 12.851 15.21 12.851z" fill="url(#b)"/><path d="m14.548 10.365c0 1.3223-1.0389 2.369-2.3512 2.369-1.3124 0-2.3513-1.0467-2.3513-2.369s1.039-2.369 2.3513-2.369 2.3512 1.0467 2.3512 2.369m12.197 0c0 1.3223-1.039 2.369-2.3513 2.369s-2.3512-1.0467-2.3512-2.369 1.039-2.369 2.3512-2.369c1.3124 0 2.3513 1.0467 2.3513 2.369" fill="#187e28"/><path d="m38.502 22.802c0 1.1517 0.9143 2.073 2.0573 2.073s2.0573-0.9213 2.0573-2.073c0-1.1516-0.9144-2.0729-2.0573-2.0729-1.143 0-2.0574 0.9213-2.0574 2.073m-10.14 0c0 1.1516 0.9144 2.0729 2.0573 2.0729 1.143 0 2.0574-0.9213 2.0574-2.073 0-1.1516-0.9144-2.0729-2.0574-2.0729s-2.0573 0.9213-2.0573 2.073" fill="#858c8c"/></g></svg>
